<svg xmlns="http://www.w3.org/2000/svg" width="118.511" height="35.714" viewBox="0 0 118.511 35.714">
  <g id="Amazon_logo" transform="translate(0 0)">
    <path id="path8" d="M197.54,197.411c-6.887,5.076-16.869,7.784-25.463,7.784a46.077,46.077,0,0,1-31.107-11.87c-.645-.583-.067-1.377.707-.923a62.608,62.608,0,0,0,31.122,8.254,61.887,61.887,0,0,0,23.74-4.854c1.166-.5,2.141.763,1,1.61" transform="translate(-124.018 -169.481)" fill="#7f8092" fill-rule="evenodd"/>
    <path id="path10" d="M580.5,184.921c-.877-1.125-5.819-.531-8.037-.268-.676.083-.779-.506-.17-.929,3.936-2.77,10.395-1.971,11.148-1.042s-.2,7.408-3.895,10.5c-.568.475-1.109.222-.856-.408.831-2.074,2.693-6.722,1.811-7.852" transform="translate(-504.116 -160.268)" fill="#7f8092" fill-rule="evenodd"/>
    <path id="path12" d="M572.923,7.814V5.121a.664.664,0,0,1,.681-.681H585.66a.671.671,0,0,1,.7.681V7.427a3.793,3.793,0,0,1-.908,1.692L579.2,18.039a13.311,13.311,0,0,1,6.877,1.475,1.227,1.227,0,0,1,.64,1.047v2.873c0,.392-.433.851-.887.614a13.888,13.888,0,0,0-12.737.021c-.418.227-.856-.227-.856-.619V20.721a3.256,3.256,0,0,1,.444-1.852L579.918,8.49h-6.3a.667.667,0,0,1-.7-.676" transform="translate(-504.42 -3.914)" fill="#7f8092" fill-rule="evenodd"/>
    <path id="path14" d="M174.784,22.045h-3.668a.693.693,0,0,1-.655-.624V2.6a.689.689,0,0,1,.707-.676h3.42a.691.691,0,0,1,.665.629V5.011h.067a4.841,4.841,0,0,1,4.828-3.487c2.3,0,3.73,1.109,4.761,3.487a5.417,5.417,0,0,1,9.311-1.429c1.161,1.584.923,3.884.923,5.9l-.005,11.88a.693.693,0,0,1-.707.681h-3.663a.7.7,0,0,1-.66-.681V11.387a23.562,23.562,0,0,0-.1-3.529,1.91,1.91,0,0,0-2.156-1.62,2.436,2.436,0,0,0-2.192,1.542,11.4,11.4,0,0,0-.34,3.606v9.977a.693.693,0,0,1-.707.681h-3.663a.693.693,0,0,1-.66-.681l-.005-9.977c0-2.1.346-5.19-2.26-5.19-2.636,0-2.533,3.013-2.533,5.19v9.977a.693.693,0,0,1-.707.681" transform="translate(-150.26 -1.343)" fill="#7f8092" fill-rule="evenodd"/>
    <path id="path16" d="M717.565,1.524c5.442,0,8.388,4.674,8.388,10.617,0,5.742-3.255,10.3-8.388,10.3-5.344,0-8.254-4.674-8.254-10.5,0-5.86,2.946-10.415,8.254-10.415m.031,3.843c-2.7,0-2.873,3.683-2.873,5.979s-.036,7.212,2.842,7.212c2.842,0,2.977-3.962,2.977-6.376a17.4,17.4,0,0,0-.547-4.994,2.3,2.3,0,0,0-2.4-1.821" transform="translate(-625.25 -1.343)" fill="#7f8092" fill-rule="evenodd"/>
    <path id="path18" d="M877.169,22.045h-3.652a.7.7,0,0,1-.66-.681l-.005-18.829a.694.694,0,0,1,.707-.614h3.4a.7.7,0,0,1,.655.526V5.326h.067c1.027-2.574,2.466-3.8,5-3.8a4.812,4.812,0,0,1,4.282,2.218c.96,1.506.96,4.039.96,5.86v11.85a.7.7,0,0,1-.707.593h-3.678a.7.7,0,0,1-.65-.593V11.227c0-2.058.237-5.071-2.3-5.071a2.4,2.4,0,0,0-2.12,1.506,8.331,8.331,0,0,0-.583,3.565V21.364a.705.705,0,0,1-.717.681" transform="translate(-769.409 -1.343)" fill="#7f8092" fill-rule="evenodd"/>
    <path id="path28" d="M416.545,11.71a7.175,7.175,0,0,1-.686,3.89,2.98,2.98,0,0,1-2.538,1.666c-1.408,0-2.234-1.073-2.234-2.657,0-3.126,2.8-3.694,5.458-3.694v.794m3.7,8.94a.766.766,0,0,1-.867.088,8.94,8.94,0,0,1-2.1-2.445c-2.012,2.053-3.441,2.667-6.046,2.667-3.09,0-5.489-1.9-5.489-5.716a6.225,6.225,0,0,1,3.91-5.994c1.991-.877,4.772-1.032,6.9-1.274V7.5a4.678,4.678,0,0,0-.449-2.657,2.441,2.441,0,0,0-2.058-.954,2.79,2.79,0,0,0-2.946,2.2.767.767,0,0,1-.64.671L406.9,6.382a.646.646,0,0,1-.547-.769C407.166,1.3,411.066,0,414.553,0a8.316,8.316,0,0,1,5.525,1.826c1.785,1.666,1.615,3.89,1.615,6.309v5.716a5.016,5.016,0,0,0,1.383,3.4.694.694,0,0,1-.015.975c-.748.624-2.079,1.785-2.811,2.435l-.005-.01" transform="translate(-357.653)" fill="#7f8092" fill-rule="evenodd"/>
    <path id="path30" d="M10.807,11.71a7.175,7.175,0,0,1-.686,3.89,2.974,2.974,0,0,1-2.538,1.666c-1.408,0-2.229-1.073-2.229-2.657,0-3.126,2.8-3.694,5.453-3.694v.794m3.7,8.94a.766.766,0,0,1-.867.088,9.031,9.031,0,0,1-2.1-2.445C9.523,20.346,8.1,20.96,5.489,20.96,2.4,20.96,0,19.056,0,15.244A6.232,6.232,0,0,1,3.91,9.25c1.991-.877,4.772-1.032,6.9-1.274V7.5a4.719,4.719,0,0,0-.444-2.657A2.454,2.454,0,0,0,8.306,3.89a2.8,2.8,0,0,0-2.951,2.2.767.767,0,0,1-.635.671l-3.56-.382a.65.65,0,0,1-.547-.769C1.434,1.3,5.329,0,8.816,0a8.316,8.316,0,0,1,5.525,1.826c1.785,1.666,1.615,3.89,1.615,6.309v5.716a5.016,5.016,0,0,0,1.383,3.4.689.689,0,0,1-.01.975c-.748.624-2.079,1.785-2.811,2.435l-.01-.01" fill="#7f8092" fill-rule="evenodd"/>
  </g>
</svg>
