<svg xmlns="http://www.w3.org/2000/svg" width="32.299" height="38.776" viewBox="0 0 32.299 38.776">
  <g id="_09-timer" data-name="09-timer" transform="translate(-8)">
    <path id="Path_301" data-name="Path 301" d="M35.89,11.538l2.321-2.321L35.928,6.933,33.445,9.415a16.048,16.048,0,0,0-7.68-2.875V3.23h3.23V0H19.3V3.23h3.23V6.541a16.048,16.048,0,0,0-7.68,2.875L12.372,6.933,10.088,9.217l2.321,2.321a16.15,16.15,0,1,0,23.482,0ZM24.15,35.529a12.92,12.92,0,1,1,12.92-12.92A12.92,12.92,0,0,1,24.15,35.529Z" fill="#fff"/>
    <path id="Path_302" data-name="Path 302" d="M33.69,32v9.69H24A9.69,9.69,0,1,0,33.69,32Z" transform="translate(-9.54 -19.08)" fill="#fff" opacity="0.9"/>
  </g>
</svg>
