<svg xmlns="http://www.w3.org/2000/svg" width="36.325" height="30.814" viewBox="0 0 36.325 30.814">
  <g id="group_2_" data-name="group (2)" transform="translate(0 -38.84)">
    <g id="Group_816" data-name="Group 816" transform="translate(28.272 55.476)" opacity="0.9">
      <g id="Group_815" data-name="Group 815">
        <path id="Path_303" data-name="Path 303" d="M401.3,273.32h-2.809a7.307,7.307,0,0,1,.443,2.512v10.617a3.131,3.131,0,0,1-.18,1.049H403.4a3.15,3.15,0,0,0,3.146-3.146v-5.788A5.25,5.25,0,0,0,401.3,273.32Z" transform="translate(-398.494 -273.32)" fill="#fff"/>
      </g>
    </g>
    <g id="Group_818" data-name="Group 818" transform="translate(0 55.476)" opacity="0.9">
      <g id="Group_817" data-name="Group 817">
        <path id="Path_304" data-name="Path 304" d="M7.61,275.833a7.307,7.307,0,0,1,.443-2.512H5.244A5.25,5.25,0,0,0,0,278.565v5.788A3.15,3.15,0,0,0,3.146,287.5H7.791a3.132,3.132,0,0,1-.18-1.049Z" transform="translate(0 -273.321)" fill="#fff"/>
      </g>
    </g>
    <g id="Group_820" data-name="Group 820" transform="translate(9.708 52.744)">
      <g id="Group_819" data-name="Group 819">
        <path id="Path_305" data-name="Path 305" d="M148.495,234.815h-6.422a5.25,5.25,0,0,0-5.244,5.244v10.617a1.049,1.049,0,0,0,1.049,1.049H152.69a1.049,1.049,0,0,0,1.049-1.049V240.059A5.25,5.25,0,0,0,148.495,234.815Z" transform="translate(-136.829 -234.815)" fill="#fff"/>
      </g>
    </g>
    <g id="Group_822" data-name="Group 822" transform="translate(11.856 38.84)">
      <g id="Group_821" data-name="Group 821">
        <path id="Path_306" data-name="Path 306" d="M173.42,38.84a6.305,6.305,0,1,0,6.306,6.306A6.313,6.313,0,0,0,173.42,38.84Z" transform="translate(-167.114 -38.84)" fill="#fff"/>
      </g>
    </g>
    <g id="Group_824" data-name="Group 824" transform="translate(2.373 44.718)" opacity="0.9">
      <g id="Group_823" data-name="Group 823">
        <path id="Path_307" data-name="Path 307" d="M38.159,121.689a4.714,4.714,0,1,0,4.716,4.716A4.722,4.722,0,0,0,38.159,121.689Z" transform="translate(-33.443 -121.689)" fill="#fff"/>
      </g>
    </g>
    <g id="Group_826" data-name="Group 826" transform="translate(24.52 44.718)" opacity="0.9">
      <g id="Group_825" data-name="Group 825">
        <path id="Path_308" data-name="Path 308" d="M350.323,121.689a4.716,4.716,0,1,0,4.716,4.716A4.722,4.722,0,0,0,350.323,121.689Z" transform="translate(-345.607 -121.689)" fill="#fff"/>
      </g>
    </g>
  </g>
</svg>
