<svg xmlns="http://www.w3.org/2000/svg" width="37.151" height="36.565" viewBox="0 0 37.151 36.565">
  <g id="Group_26" data-name="Group 26" transform="translate(1323 -1199.667)">
    <circle id="Ellipse_59" data-name="Ellipse 59" cx="16.557" cy="16.557" r="16.557" transform="translate(-1320.779 1201.167)" fill="none" stroke="#fff" stroke-miterlimit="10" stroke-width="3"/>
    <circle id="Ellipse_60" data-name="Ellipse 60" cx="9.288" cy="9.288" r="9.288" transform="translate(-1313.51 1208.435)" fill="none" stroke="#fff" stroke-miterlimit="10" stroke-width="3" opacity="0.9"/>
    <g id="Group_25" data-name="Group 25" transform="translate(-1323 1214.291)">
      <path id="Path_182" data-name="Path 182" d="M-1279.037,1239.413a3.417,3.417,0,0,0,.9-2.313,3.432,3.432,0,0,0-3.432-3.432A3.432,3.432,0,0,0-1285,1237.1a3.419,3.419,0,0,0,1.047,2.465l2.587-2.532Z" transform="translate(1300.345 -1233.667)" fill="#fff" opacity="0.9"/>
      <path id="Path_183" data-name="Path 183" d="M-1285.849,1264.09l-15.843-16.2a3.42,3.42,0,0,1-2.531,1.119,3.42,3.42,0,0,1-2.385-.968L-1323,1264.09Z" transform="translate(1323 -1242.149)" fill="#fff"/>
    </g>
  </g>
</svg>
