<svg xmlns="http://www.w3.org/2000/svg" width="120.644" height="39.714" viewBox="0 0 120.644 39.714">
  <g id="Google_2015_logo" transform="translate(-0.36 -0.47)">
    <path id="Path_3" data-name="Path 3" d="M91.16,34.924A9.955,9.955,0,1,1,81.205,25,9.8,9.8,0,0,1,91.16,34.924Zm-4.358,0a5.612,5.612,0,1,0-11.195,0,5.612,5.612,0,1,0,11.195,0Z" transform="translate(-39.172 -13.555)" fill="#7f8092"/>
    <path id="Path_4" data-name="Path 4" d="M139.16,34.924A9.955,9.955,0,1,1,129.205,25,9.8,9.8,0,0,1,139.16,34.924Zm-4.358,0a5.612,5.612,0,1,0-11.195,0,5.612,5.612,0,1,0,11.195,0Z" transform="translate(-65.695 -13.555)" fill="#7f8092"/>
    <path id="Path_5" data-name="Path 5" d="M186.255,25.6V43.416c0,7.329-4.322,10.322-9.432,10.322a9.45,9.45,0,0,1-8.8-5.848l3.794-1.579a5.482,5.482,0,0,0,5,3.521c3.271,0,5.3-2.018,5.3-5.817V42.588h-.152a6.757,6.757,0,0,1-5.226,2.255,9.931,9.931,0,0,1,0-19.843,6.877,6.877,0,0,1,5.226,2.219h.152V25.6h4.139Zm-3.83,9.36c0-3.494-2.331-6.049-5.3-6.049A5.738,5.738,0,0,0,171.6,34.96a5.7,5.7,0,0,0,5.526,5.978C180.094,40.937,182.425,38.418,182.425,34.96Z" transform="translate(-92.208 -13.555)" fill="#7f8092"/>
    <path id="Path_6" data-name="Path 6" d="M219.751,3V32.083H215.5V3Z" transform="translate(-118.881 -1.398)" fill="#7f8092"/>
    <path id="Path_7" data-name="Path 7" d="M243.824,38.185l3.383,2.255a9.878,9.878,0,0,1-8.268,4.4,9.71,9.71,0,0,1-9.848-9.924c0-5.9,4.246-9.924,9.36-9.924,5.15,0,7.669,4.1,8.492,6.313l.452,1.128-13.266,5.494a5.051,5.051,0,0,0,4.81,3.007A5.664,5.664,0,0,0,243.824,38.185Zm-10.412-3.57,8.868-3.682a3.842,3.842,0,0,0-3.682-2.1A5.443,5.443,0,0,0,233.412,34.614Z" transform="translate(-126.39 -13.549)" fill="#7f8092"/>
    <path id="Path_8" data-name="Path 8" d="M15.989,18.788v-4.21H30.177a13.951,13.951,0,0,1,.21,2.541,13.9,13.9,0,0,1-3.647,9.848,14.091,14.091,0,0,1-10.747,4.322A15.626,15.626,0,0,1,.36,15.879,15.626,15.626,0,0,1,15.993.47,14.683,14.683,0,0,1,26.552,4.716L23.581,7.687A10.732,10.732,0,0,0,15.989,4.68a11.054,11.054,0,0,0-11.051,11.2,11.054,11.054,0,0,0,11.051,11.2A10.309,10.309,0,0,0,23.769,24a8.727,8.727,0,0,0,2.282-5.213Z" transform="translate(0 0)" fill="#7f8092"/>
  </g>
</svg>
