<svg xmlns="http://www.w3.org/2000/svg" xmlns:xlink="http://www.w3.org/1999/xlink" width="771" height="644" viewBox="0 0 771 644">
  <defs>
    <linearGradient id="linear-gradient" x1="0.959" y1="0.5" x2="-0.235" y2="0.514" gradientUnits="objectBoundingBox">
      <stop offset="0" stop-color="#00c58d"/>
      <stop offset="1" stop-color="#fff"/>
    </linearGradient>
    <filter id="Path_3507" x="0" y="148" width="570" height="483" filterUnits="userSpaceOnUse">
      <feOffset dx="-10" dy="30" input="SourceAlpha"/>
      <feGaussianBlur stdDeviation="30" result="blur"/>
      <feFlood flood-opacity="0.102"/>
      <feComposite operator="in" in2="blur"/>
      <feComposite in="SourceGraphic"/>
    </filter>
    <filter id="Rectangle_561" x="368" y="93" width="403" height="443" filterUnits="userSpaceOnUse">
      <feOffset dy="20" input="SourceAlpha"/>
      <feGaussianBlur stdDeviation="30" result="blur-2"/>
      <feFlood flood-opacity="0.102"/>
      <feComposite operator="in" in2="blur-2"/>
      <feComposite in="SourceGraphic"/>
    </filter>
    <filter id="Path_3506" x="243" y="47" width="410" height="249" filterUnits="userSpaceOnUse">
      <feOffset dx="-10" dy="20" input="SourceAlpha"/>
      <feGaussianBlur stdDeviation="30" result="blur-3"/>
      <feFlood flood-opacity="0.102"/>
      <feComposite operator="in" in2="blur-3"/>
      <feComposite in="SourceGraphic"/>
    </filter>
    <linearGradient id="linear-gradient-2" x1="0.974" x2="-0.047" y2="1" xlink:href="#linear-gradient"/>
    <linearGradient id="linear-gradient-5" x1="0.5" y1="0" x2="0.5" y2="1" xlink:href="#linear-gradient"/>
  </defs>
  <g id="Group_898" data-name="Group 898" transform="translate(29 -1988)">
    <g id="Group_848" data-name="Group 848" transform="translate(-796 592)">
      <circle id="Ellipse_208" data-name="Ellipse 208" cx="257.5" cy="257.5" r="257.5" transform="translate(890 1458)" opacity="0.13" fill="url(#linear-gradient)"/>
      <g id="Ellipse_209" data-name="Ellipse 209" transform="translate(828 1396)" fill="none" stroke="#e4e4e7" stroke-width="1" stroke-dasharray="10">
        <circle cx="319.5" cy="319.5" r="319.5" stroke="none"/>
        <circle cx="319.5" cy="319.5" r="319" fill="none"/>
      </g>
    </g>
    <g transform="matrix(1, 0, 0, 1, -29, 1988)" filter="url(#Path_3507)">
      <g id="Path_3507-2" data-name="Path 3507" transform="translate(100 208)" fill="rgba(255,255,255,0.96)">
        <path d="M 370 302 L 20 302 C 17.43454933166504 302 14.9463996887207 301.497802734375 12.60464954376221 300.5072937011719 C 10.34224987030029 299.5504150390625 8.310199737548828 298.1802978515625 6.564949989318848 296.43505859375 C 4.819699764251709 294.6897888183594 3.449599981307983 292.6577453613281 2.492700099945068 290.3953552246094 C 1.50220000743866 288.0535888671875 1 285.5654602050781 1 283 L 1 20 C 1 17.43454933166504 1.50220000743866 14.9463996887207 2.492700099945068 12.60464954376221 C 3.449599981307983 10.34224987030029 4.819699764251709 8.310199737548828 6.564949989318848 6.564949989318848 C 8.310199737548828 4.819699764251709 10.34224987030029 3.449599981307983 12.60464954376221 2.492700099945068 C 14.9463996887207 1.50220000743866 17.43454933166504 1 20 1 L 370 1 C 372.5654602050781 1 375.0535888671875 1.50220000743866 377.3953552246094 2.492700099945068 C 379.6577453613281 3.449599981307983 381.6897888183594 4.819699764251709 383.43505859375 6.564949989318848 C 385.1802978515625 8.310199737548828 386.5504150390625 10.34224987030029 387.5072937011719 12.60464954376221 C 388.497802734375 14.9463996887207 389 17.43454933166504 389 20 L 389 283 C 389 285.5654602050781 388.497802734375 288.0535888671875 387.5072937011719 290.3953552246094 C 386.5504150390625 292.6577453613281 385.1802978515625 294.6897888183594 383.43505859375 296.43505859375 C 381.6897888183594 298.1802978515625 379.6577453613281 299.5504150390625 377.3953552246094 300.5072937011719 C 375.0535888671875 301.497802734375 372.5654602050781 302 370 302 Z" stroke="none"/>
        <path d="M 20 2 C 15.19198608398438 2 10.67184448242188 3.872344970703125 7.2720947265625 7.2720947265625 C 3.872344970703125 10.67184448242188 2 15.19198608398438 2 20 L 2 283 C 2 287.8080139160156 3.872344970703125 292.3281555175781 7.2720947265625 295.7279052734375 C 10.67184448242188 299.1276550292969 15.19198608398438 301 20 301 L 370 301 C 374.8080139160156 301 379.3281555175781 299.1276550292969 382.7279052734375 295.7279052734375 C 386.1276550292969 292.3281555175781 388 287.8080139160156 388 283 L 388 20 C 388 15.19198608398438 386.1276550292969 10.67184448242188 382.7279052734375 7.2720947265625 C 379.3281555175781 3.872344970703125 374.8080139160156 2 370 2 L 20 2 M 20 0 L 370 0 C 381.0457153320313 0 390 8.954315185546875 390 20 L 390 283 C 390 294.0457153320313 381.0457153320313 303 370 303 L 20 303 C 8.954315185546875 303 0 294.0457153320313 0 283 L 0 20 C 0 8.954315185546875 8.954315185546875 0 20 0 Z" stroke="none" fill="#fff"/>
      </g>
    </g>
    <circle id="Ellipse_249" data-name="Ellipse 249" cx="87" cy="87" r="87" transform="translate(370 2308)" fill="#00c58d" opacity="0.5"/>
    <g id="Group_889" data-name="Group 889" transform="translate(189 -24)">
      <g transform="matrix(1, 0, 0, 1, -218, 2012)" filter="url(#Rectangle_561)">
        <rect id="Rectangle_561-2" data-name="Rectangle 561" width="223" height="263" rx="20" transform="translate(458 163)" fill="#00c58d"/>
      </g>
      <g id="Group_881" data-name="Group 881" transform="translate(411.626 2345.126) rotate(-180)">
        <g id="Path_259" data-name="Path 259" transform="translate(0 0)" fill="none" stroke-linecap="round">
          <path d="M60.126,0A60.126,60.126,0,1,1,0,60.126,60.126,60.126,0,0,1,60.126,0Z" stroke="none"/>
          <path d="M 60.12593078613281 10.00000762939453 C 32.48640441894531 10.00000762939453 10.00000762939453 32.48640441894531 10.00000762939453 60.12593078613281 C 10.00000762939453 87.76545715332031 32.48640441894531 110.2518539428711 60.12593078613281 110.2518539428711 C 87.76545715332031 110.2518539428711 110.2518539428711 87.76545715332031 110.2518539428711 60.12593078613281 C 110.2518539428711 32.48640441894531 87.76545715332031 10.00000762939453 60.12593078613281 10.00000762939453 M 60.12593078613281 7.62939453125e-06 C 93.33255767822266 7.62939453125e-06 120.2518539428711 26.91930389404297 120.2518539428711 60.12593078613281 C 120.2518539428711 93.33255767822266 93.33255767822266 120.2518539428711 60.12593078613281 120.2518539428711 C 26.91930389404297 120.2518539428711 7.62939453125e-06 93.33255767822266 7.62939453125e-06 60.12593078613281 C 7.62939453125e-06 26.91930389404297 26.91930389404297 7.62939453125e-06 60.12593078613281 7.62939453125e-06 Z" stroke="none" fill="#0ba97c"/>
        </g>
        <g id="Path_3496" data-name="Path 3496" transform="translate(120.252 120.252) rotate(-180)" fill="none" stroke-linecap="round" stroke-dasharray="120 300">
          <path d="M60.126,0A60.126,60.126,0,1,1,0,60.126,60.126,60.126,0,0,1,60.126,0Z" stroke="none"/>
          <path d="M 60.12593078613281 7.62939453125e-06 C 93.33255767822266 7.62939453125e-06 120.2518539428711 26.91930389404297 120.2518539428711 60.12593078613281 C 120.2518539428711 60.13455963134766 120.2518539428711 60.14253616333008 120.2518539428711 60.15116500854492 C 120.2518463134766 60.15319061279297 120.2518463134766 60.15671920776367 120.2518463134766 60.15874481201172 C 120.2518463134766 60.16467666625977 120.251838684082 60.17020034790039 120.251838684082 60.17612838745117 C 120.2518310546875 60.18018341064453 120.2518310546875 60.18246841430664 120.251823425293 60.18651962280273 C 120.2518157958984 60.19190979003906 120.2518157958984 60.19594573974609 120.2518081665039 60.20133590698242 C 120.2518005371094 60.20538711547852 120.2518005371094 60.20764923095703 120.2517929077148 60.21170043945313 C 120.2517852783203 60.216552734375 120.2517776489258 60.22162246704102 120.2517700195313 60.22647476196289 C 120.2517700195313 60.22850036621094 120.2517547607422 60.23567962646484 120.2517547607422 60.23770523071289 C 120.2517471313477 60.24255752563477 120.2517395019531 60.24679565429688 120.2517242431641 60.25164794921875 C 120.2517242431641 60.2536735534668 120.251708984375 60.26026153564453 120.2517013549805 60.26228713989258 C 120.2516937255859 60.26713943481445 120.2516784667969 60.27228927612305 120.2516708374023 60.27714157104492 C 120.2516555786133 60.28119277954102 120.2516555786133 60.28367233276367 120.2516403198242 60.28772354125977 C 120.2516250610352 60.29257202148438 120.2516174316406 60.29719924926758 120.2516021728516 60.30205154418945 C 120.2515869140625 60.30610275268555 120.251579284668 60.3090705871582 120.2515716552734 60.3131217956543 C 120.2515563964844 60.31743240356445 120.2515411376953 60.32257843017578 120.2515258789063 60.3268928527832 C 120.2515106201172 60.33094024658203 120.2514953613281 60.3349723815918 120.2514877319336 60.33902359008789 C 120.2514724731445 60.34333419799805 120.2514572143555 60.34760665893555 120.2514419555664 60.3519172668457 C 120.2514266967773 60.3559684753418 120.2514114379883 60.35958862304688 120.2513961791992 60.3636360168457 C 120.2513732910156 60.36848831176758 120.2513580322266 60.37256240844727 120.2513427734375 60.37741088867188 C 120.2513198852539 60.38146209716797 120.2513122558594 60.38494110107422 120.2512893676758 60.38899230957031 C 120.2512741088867 60.39330291748047 120.2512512207031 60.39828491210938 120.2512283325195 60.40259552001953 C 120.251220703125 60.40461730957031 120.2511901855469 60.41191482543945 120.2511825561523 60.41393661499023 C 120.2511596679688 60.41824722290039 120.2511367797852 60.4229850769043 120.2511138916016 60.42729568481445 C 120.2510986328125 60.43134307861328 120.2510757446289 60.43555068969727 120.2510528564453 60.43959808349609 C 120.2510299682617 60.44390869140625 120.2510070800781 60.44805908203125 120.2509841918945 60.45236587524414 C 120.2509689331055 60.45641708374023 120.2509460449219 60.4602165222168 120.2509231567383 60.46426391601563 C 120.2509002685547 60.46911239624023 120.2508697509766 60.47412109375 120.2508392333984 60.47896957397461 C 120.2508163452148 60.48301696777344 120.2508010864258 60.48534774780273 120.2507781982422 60.48939514160156 C 120.2507400512695 60.49639892578125 120.2506866455078 60.50430297851563 120.2506484985352 60.51130294799805 C 120.2506332397461 60.51332473754883 120.2506408691406 60.5120735168457 120.2506256103516 60.51409530639648 C 120.2505722045898 60.52271270751953 120.2505264282227 60.5305061340332 120.2504653930664 60.53911972045898 C 120.2504348754883 60.54316711425781 120.2504196166992 60.54628753662109 120.2503890991211 60.55033493041992 C 120.250358581543 60.55464172363281 120.2503204345703 60.55997848510742 120.2502899169922 60.56428527832031 C 120.2502593994141 60.56833267211914 120.2502365112305 60.57212066650391 120.2502059936523 60.57616806030273 C 120.2501754760742 60.58047485351563 120.2501373291016 60.58492660522461 120.2501068115234 60.5892333984375 C 120.2500762939453 60.59327697753906 120.2500457763672 60.59701538085938 120.2500152587891 60.6010627746582 C 120.2499847412109 60.60536956787109 120.2499465942383 60.61033630371094 120.2499084472656 60.61464309692383 C 120.2498779296875 60.61868667602539 120.2498474121094 60.62246322631836 120.2498168945313 60.62650680541992 C 120.2497787475586 60.63081359863281 120.2497482299805 60.63496017456055 120.2497100830078 60.63926696777344 C 120.2496719360352 60.64331436157227 120.249641418457 60.64768600463867 120.2496032714844 60.6517333984375 C 120.2495651245117 60.65603637695313 120.2495269775391 60.66062164306641 120.2494888305664 60.6649284362793 C 120.2494506835938 60.66897583007813 120.2494277954102 60.67218780517578 120.2493896484375 60.67623138427734 C 120.2493438720703 60.68107604980469 120.2493057250977 60.68519973754883 120.2492599487305 60.69004058837891 C 120.2492294311523 60.69408798217773 120.2491989135742 60.69705581665039 120.2491607666016 60.70109939575195 C 120.2491149902344 60.7059440612793 120.2490692138672 60.71055603027344 120.2490234375 60.71540069580078 C 120.2489852905273 60.71944427490234 120.2489547729492 60.72280502319336 120.2489166259766 60.72684860229492 C 120.2488708496094 60.73115539550781 120.2488327026367 60.73512268066406 120.2487869262695 60.73942947387695 C 120.2487487792969 60.74347305297852 120.2486953735352 60.74850845336914 120.2486572265625 60.7525520324707 C 120.2486190795898 60.75632095336914 120.2485733032227 60.76086807250977 120.24853515625 60.76463317871094 C 120.2484893798828 60.7686767578125 120.2484436035156 60.77326965332031 120.2483978271484 60.77731323242188 C 120.2483520507813 60.78162002563477 120.2483139038086 60.78542709350586 120.2482681274414 60.78973007202148 C 120.2482223510742 60.79377365112305 120.248176574707 60.79822540283203 120.2481307983398 60.80226898193359 C 120.2480850219727 60.80657196044922 120.2480316162109 60.81109237670898 120.2479858398438 60.81539535522461 C 120.2479400634766 60.81943893432617 120.2478942871094 60.82326889038086 120.2478485107422 60.82731246948242 C 120.247802734375 60.83161544799805 120.2477493286133 60.83583831787109 120.2476959228516 60.84014129638672 C 120.2476501464844 60.84418487548828 120.2476043701172 60.84831237792969 120.24755859375 60.85235214233398 C 120.2475051879883 60.85665512084961 120.247444152832 60.86164855957031 120.2473907470703 60.86594772338867 C 120.2473449707031 60.86999130249023 120.2473068237305 60.87336730957031 120.2472534179688 60.87740707397461 C 120.2471923828125 60.88224792480469 120.2471313476563 60.88769912719727 120.2470703125 60.89253997802734 C 120.2470169067383 60.89657974243164 120.2470016479492 60.89816665649414 120.2469482421875 60.9022102355957 C 120.2468643188477 60.90866088867188 120.2467880249023 60.91447830200195 120.2467041015625 60.92092895507813 C 120.2466278076172 60.9269905090332 120.2465438842773 60.93319320678711 120.246467590332 60.93925476074219 C 120.2464065551758 60.94355773925781 120.2463607788086 60.94746780395508 120.2462997436523 60.9517707824707 C 120.2462463378906 60.955810546875 120.2461700439453 60.96132278442383 120.2461166381836 60.96536254882813 C 120.2460632324219 60.96912384033203 120.2460098266602 60.97322463989258 120.2459564208984 60.97698593139648 C 120.2458953857422 60.98102569580078 120.245849609375 60.98453521728516 120.2457885742188 60.98857498168945 C 120.2457275390625 60.99341201782227 120.2456665039063 60.99742126464844 120.2455978393555 61.00225830078125 C 120.2455444335938 61.00629806518555 120.245491027832 61.00982666015625 120.2454299926758 61.01386642456055 C 120.2453689575195 61.01816940307617 120.2453002929688 61.02293014526367 120.2452392578125 61.02722930908203 C 120.2451782226563 61.03126907348633 120.2451171875 61.03535842895508 120.2450561523438 61.03939819335938 C 120.245002746582 61.04315948486328 120.2449264526367 61.04818725585938 120.2448654174805 61.05194854736328 C 120.2448043823242 61.05598831176758 120.2447357177734 61.06085586547852 120.2446746826172 61.06489562988281 C 120.2446060180664 61.06919479370117 120.2445449829102 61.07295227050781 120.2444839477539 61.07725143432617 C 120.2444152832031 61.08129119873047 120.2443618774414 61.08498001098633 120.2443008422852 61.08901977539063 C 120.2442245483398 61.09385299682617 120.2441635131836 61.0976676940918 120.2440872192383 61.10250473022461 C 120.2440185546875 61.10654067993164 120.2439575195313 61.11054992675781 120.2438888549805 61.11458969116211 C 120.2438201904297 61.11888885498047 120.2437515258789 61.12314224243164 120.2436828613281 61.12743759155273 C 120.2436141967773 61.13147735595703 120.2435531616211 61.13539123535156 120.2434844970703 61.13943099975586 C 120.2434158325195 61.14372634887695 120.2433471679688 61.14793014526367 120.2432708740234 61.15222549438477 C 120.2432022094727 61.15626525878906 120.2431259155273 61.16071319580078 120.2430648803711 61.16474914550781 C 120.2429809570313 61.16958236694336 120.242919921875 61.17319107055664 120.2428359985352 61.17802429199219 C 120.2427673339844 61.18206405639648 120.2427139282227 61.18502044677734 120.2426452636719 61.18905639648438 C 120.242561340332 61.19388961791992 120.2424850463867 61.1982421875 120.2424011230469 61.20307540893555 C 120.2423629760742 61.20509338378906 120.2422332763672 61.21273803710938 120.2421951293945 61.21475601196289 C 120.2421112060547 61.21958923339844 120.2420425415039 61.22306060791016 120.2419586181641 61.2278938293457 C 120.2418823242188 61.23192977905273 120.2418212890625 61.23537445068359 120.2417526245117 61.23941040039063 C 120.2416763305664 61.24370574951172 120.2415771484375 61.24903869628906 120.2414932250977 61.25333404541016 C 120.2414245605469 61.25736999511719 120.2413635253906 61.26071929931641 120.2412872314453 61.26475524902344 C 120.2411880493164 61.27012252807617 120.2410888671875 61.27532958984375 120.2409896850586 61.28070068359375 C 120.2409133911133 61.28473281860352 120.2409057617188 61.28510665893555 120.2408294677734 61.28914260864258 C 120.24072265625 61.29450988769531 120.240592956543 61.30133819580078 120.2404937744141 61.30670547485352 C 120.2404556274414 61.30872344970703 120.2403793334961 61.31272506713867 120.2403335571289 61.31474304199219 C 120.2401733398438 61.32333374023438 120.2400283813477 61.33077621459961 120.2398529052734 61.3393669128418 C 120.2397766113281 61.34339904785156 120.2397308349609 61.34552383422852 120.2396545410156 61.34955978393555 C 120.2395553588867 61.35438919067383 120.2394561767578 61.35918807983398 120.2393646240234 61.36402130126953 C 120.2392807006836 61.3680534362793 120.2391967773438 61.3720703125 120.2391128540039 61.37610244750977 C 120.2390289306641 61.38039779663086 120.2389297485352 61.38509750366211 120.2388458251953 61.3893928527832 C 120.2387619018555 61.39342498779297 120.2386856079102 61.39702987670898 120.2386016845703 61.40106582641602 C 120.2385101318359 61.40535736083984 120.2384185791016 61.40977478027344 120.2383270263672 61.41407012939453 C 120.2382431030273 61.4181022644043 120.238151550293 61.4224967956543 120.2380676269531 61.42652893066406 C 120.2379760742188 61.43082427978516 120.2378845214844 61.4349479675293 120.23779296875 61.43923950195313 C 120.2377090454102 61.44327545166016 120.2376174926758 61.44738006591797 120.2375335693359 61.45141220092773 C 120.2374420166016 61.45570373535156 120.2373504638672 61.45989990234375 120.2372589111328 61.46419143676758 C 120.2371673583984 61.46822357177734 120.2370834350586 61.47208023071289 120.2369918823242 61.47611236572266 C 120.2369003295898 61.48040390014648 120.2367935180664 61.48530578613281 120.2366943359375 61.48959732055664 C 120.2366027832031 61.49362945556641 120.2365264892578 61.49720764160156 120.2364349365234 61.50123977661133 C 120.2363357543945 61.50553131103516 120.2362365722656 61.51008987426758 120.2361373901367 61.51438140869141 C 120.2360458374023 61.51841354370117 120.235969543457 61.52193450927734 120.2358779907227 61.52596664428711 C 120.2357788085938 61.53025817871094 120.2356491088867 61.53577041625977 120.2355499267578 61.54006195068359 C 120.2354583740234 61.54409027099609 120.2353897094727 61.54691314697266 120.2352981567383 61.55094528198242 C 120.2351837158203 61.5557746887207 120.2350921630859 61.55974960327148 120.234977722168 61.5645751953125 C 120.2348861694336 61.56860733032227 120.2348022460938 61.57216262817383 120.2347106933594 61.57619094848633 C 120.2345962524414 61.58102035522461 120.234489440918 61.58531188964844 120.234375 61.59013748168945 C 120.2342758178711 61.59416961669922 120.2342071533203 61.59701538085938 120.2341156005859 61.60104370117188 C 120.234001159668 61.60587310791016 120.23388671875 61.61050415039063 120.2337646484375 61.61532974243164 C 120.2337188720703 61.61734390258789 120.2335586547852 61.62392807006836 120.233512878418 61.62594604492188 C 120.2333755493164 61.63130569458008 120.2332534790039 61.63625717163086 120.2331237792969 61.64162063598633 C 120.233024597168 61.64564895629883 120.2329940795898 61.64679336547852 120.2328948974609 61.65082168579102 C 120.2327499389648 61.65671920776367 120.2326202392578 61.66191101074219 120.2324676513672 61.66780853271484 C 120.2323684692383 61.67183685302734 120.2323760986328 61.67169570922852 120.2322692871094 61.67572784423828 C 120.2321090698242 61.68215942382813 120.23193359375 61.68905639648438 120.2317657470703 61.69548797607422 C 120.2317123413086 61.69750213623047 120.2316818237305 61.69881057739258 120.2316284179688 61.70082473754883 C 120.2311859130859 61.71797561645508 120.2307739257813 61.73394775390625 120.2303161621094 61.75109481811523 C 120.2302093505859 61.75512313842773 120.2302017211914 61.75548553466797 120.230094909668 61.75951385498047 C 120.2299499511719 61.76486968994141 120.2298049926758 61.77036666870117 120.2296600341797 61.77572631835938 C 120.2295532226563 61.77975463867188 120.2294464111328 61.78347396850586 120.2293395996094 61.78750228881836 C 120.2292098999023 61.79232406616211 120.2291107177734 61.79602432250977 120.2289733886719 61.80084991455078 C 120.2288665771484 61.80487442016602 120.2287979125977 61.80744171142578 120.2286834716797 61.81147003173828 C 120.2285537719727 61.81629180908203 120.2284164428711 61.82125473022461 120.2282791137695 61.82607650756836 C 120.2282257080078 61.82808685302734 120.2280426025391 61.83473587036133 120.2279815673828 61.83675003051758 C 120.2278518676758 61.84157180786133 120.2277145385742 61.84629440307617 120.2275772094727 61.85111618041992 C 120.2275238037109 61.85313034057617 120.2273406982422 61.85951232910156 120.2272872924805 61.86152648925781 C 120.2271499633789 61.8663444519043 120.2270126342773 61.87121963500977 120.2268753051758 61.87604141235352 C 120.2267608642578 61.88006591796875 120.2266616821289 61.88333129882813 120.2265472412109 61.88735961914063 C 120.2264099121094 61.89217758178711 120.2262954711914 61.8962287902832 120.2261505126953 61.90104675292969 C 120.2260360717773 61.90507507324219 120.2259521484375 61.90785598754883 120.2258377075195 61.91188049316406 C 120.225715637207 61.91616439819336 120.2255477905273 61.92169952392578 120.2254257202148 61.92598342895508 C 120.2253036499023 61.93000793457031 120.2251968383789 61.93362808227539 120.2250823974609 61.93765258789063 C 120.2249526977539 61.94193649291992 120.2248153686523 61.94654846191406 120.2246856689453 61.95083236694336 C 120.2245712280273 61.95485305786133 120.2244720458984 61.95817947387695 120.2243499755859 61.96220397949219 C 120.2242202758789 61.96648788452148 120.2240753173828 61.97131729125977 120.2239456176758 61.97560119628906 C 120.2238235473633 61.9796257019043 120.2237014770508 61.98372650146484 120.2235794067383 61.98775100708008 C 120.2234497070313 61.99203491210938 120.2233047485352 61.99679565429688 120.2231674194336 62.00107955932617 C 120.2231063842773 62.00308990478516 120.222900390625 62.01000595092773 120.2228317260742 62.01201629638672 C 120.2226867675781 62.0168342590332 120.2225341796875 62.02172088623047 120.2223815917969 62.02653884887695 C 120.2222595214844 62.03056335449219 120.2221755981445 62.03330612182617 120.2220458984375 62.03733062744141 C 120.2218856811523 62.04268264770508 120.2217254638672 62.04769515991211 120.2215576171875 62.05304718017578 C 120.2214279174805 62.05706787109375 120.2214126586914 62.05761337280273 120.2212829589844 62.0616340637207 C 120.2211151123047 62.06698608398438 120.2209396362305 62.0724983215332 120.2207717895508 62.07785034179688 C 120.2206420898438 62.08187103271484 120.2205963134766 62.0833740234375 120.2204666137695 62.08739852905273 C 120.2202606201172 62.09381866455078 120.2200775146484 62.09957885742188 120.2198638916016 62.10599899291992 C 120.2198028564453 62.10800933837891 120.2197418212891 62.10987091064453 120.2196731567383 62.11188125610352 C 120.2193984985352 62.12044525146484 120.2191390991211 62.12832260131836 120.2188568115234 62.13688659667969 C 120.2187957763672 62.13889694213867 120.2187271118164 62.14089584350586 120.2186584472656 62.14290618896484 C 120.2184677124023 62.1487922668457 120.2182235717773 62.15620422363281 120.2180252075195 62.16208648681641 C 120.2178955078125 62.16610717773438 120.2178573608398 62.16701889038086 120.2177276611328 62.17103958129883 C 120.2175445556641 62.1763916015625 120.2173919677734 62.18117523193359 120.2172088623047 62.1865234375 C 120.2170715332031 62.19054412841797 120.2169647216797 62.19359970092773 120.2168350219727 62.1976203918457 C 120.216667175293 62.20243453979492 120.2165069580078 62.20719909667969 120.2163467407227 62.21201324462891 C 120.2162094116211 62.21603393554688 120.2161331176758 62.21817016601563 120.2159957885742 62.22219085693359 C 120.2158279418945 62.22700500488281 120.2156677246094 62.23179626464844 120.2154998779297 62.23661041259766 C 120.2154312133789 62.23862075805664 120.2151947021484 62.24537658691406 120.2151260375977 62.24738311767578 C 120.214958190918 62.252197265625 120.2147827148438 62.25732803344727 120.2146148681641 62.26214218139648 C 120.214469909668 62.26615905761719 120.2143859863281 62.26869583129883 120.214241027832 62.2727165222168 C 120.2140731811523 62.27752685546875 120.2139358520508 62.2813720703125 120.2137680053711 62.28618240356445 C 120.2136306762695 62.29020309448242 120.2134857177734 62.29413223266602 120.2133483886719 62.29815292358398 C 120.2131729125977 62.30296325683594 120.2130279541016 62.30698394775391 120.2128601074219 62.31179809570313 C 120.2127151489258 62.31581497192383 120.2126083374023 62.31874084472656 120.2124633789063 62.32275772094727 C 120.2123107910156 62.32703399658203 120.2121200561523 62.33236694335938 120.2119674682617 62.33664321899414 C 120.2118225097656 62.34066009521484 120.2117156982422 62.34362411499023 120.2115707397461 62.34764099121094 C 120.2113952636719 62.35245132446289 120.2112274169922 62.35699081420898 120.211051940918 62.36180114746094 C 120.2109069824219 62.36581802368164 120.2107925415039 62.36893081665039 120.2106475830078 62.37294769287109 C 120.2104873657227 62.37722396850586 120.2103042602539 62.38209533691406 120.2101516723633 62.38637161254883 C 120.2099990844727 62.39038848876953 120.2098846435547 62.39360427856445 120.2097320556641 62.39762115478516 C 120.2095336914063 62.4029655456543 120.2093658447266 62.40755844116211 120.2091598510742 62.41290283203125 C 120.2090835571289 62.41491317749023 120.2088928222656 62.420166015625 120.2088165283203 62.42217636108398 C 120.2086181640625 62.42752075195313 120.2083740234375 62.43390655517578 120.2081680297852 62.43924713134766 C 120.2080993652344 62.44125747680664 120.2079620361328 62.44483947753906 120.2078857421875 62.44684982299805 C 120.2076644897461 62.45272827148438 120.2074203491211 62.45905303955078 120.2071914672852 62.46493148803711 C 120.2070388793945 62.46894836425781 120.2070693969727 62.46819686889648 120.206916809082 62.47221374511719 C 120.206672668457 62.47862243652344 120.2064208984375 62.48511123657227 120.206169128418 62.49152374267578 C 120.2060928344727 62.4935302734375 120.2060317993164 62.49507522583008 120.2059555053711 62.4970817565918 C 120.2052917480469 62.51417922973633 120.2046432495117 62.53071594238281 120.203971862793 62.54780960083008 C 120.203971862793 62.54780960083008 120.2039489746094 62.54836273193359 120.2039489746094 62.54836273193359 C 120.2036285400391 62.55637359619141 120.2033157348633 62.56417083740234 120.202995300293 62.57218170166016 C 120.2028350830078 62.57619857788086 120.2027740478516 62.57776260375977 120.2026138305664 62.5817756652832 C 120.2024002075195 62.58712005615234 120.2022247314453 62.59144592285156 120.2020111083984 62.59678649902344 C 120.2018432617188 62.60079956054688 120.2017135620117 62.60406494140625 120.2015533447266 62.60807800292969 C 120.2013778686523 62.61235046386719 120.2011566162109 62.61770629882813 120.2009887695313 62.62197494506836 C 120.2009048461914 62.62398147583008 120.2006530761719 62.63009643554688 120.200569152832 62.63210296630859 C 120.2003707885742 62.63690948486328 120.2001571655273 62.64210510253906 120.1999588012695 62.64690780639648 C 120.1997985839844 62.65092086791992 120.1996612548828 62.65409469604492 120.1995010375977 62.65810394287109 C 120.1993179321289 62.66237640380859 120.1991195678711 62.66733551025391 120.1989364624023 62.67160415649414 C 120.1987686157227 62.67561721801758 120.1986312866211 62.67886734008789 120.1984634399414 62.68288040161133 C 120.1982650756836 62.68768310546875 120.1981048583984 62.69159698486328 120.1978988647461 62.69640350341797 C 120.1977310180664 62.70041275024414 120.1975708007813 62.70424652099609 120.1974029541016 62.70825576782227 C 120.1972198486328 62.71252822875977 120.1970138549805 62.7172966003418 120.1968383789063 62.7215690612793 C 120.196662902832 62.72557830810547 120.1965408325195 62.72854614257813 120.1963653564453 62.73255920410156 C 120.1961669921875 62.73736190795898 120.1959838867188 62.74157333374023 120.1957778930664 62.74637603759766 C 120.1956024169922 62.75038909912109 120.195442199707 62.75412750244141 120.1952743530273 62.75813674926758 C 120.195068359375 62.762939453125 120.1949081420898 62.7666015625 120.1947021484375 62.77140426635742 C 120.1945266723633 62.77541351318359 120.1943969726563 62.77845001220703 120.194221496582 62.78246307373047 C 120.1940078735352 62.78726577758789 120.1938323974609 62.79138946533203 120.1936187744141 62.79619216918945 C 120.1934432983398 62.80020141601563 120.1932830810547 62.80385208129883 120.1931076049805 62.80786514282227 C 120.1928787231445 62.81319808959961 120.1926956176758 62.81729125976563 120.1924591064453 62.82262802124023 C 120.1923675537109 62.82463073730469 120.1921463012695 62.82968902587891 120.1920623779297 62.83169555664063 C 120.1918029785156 62.83756256103516 120.1915893554688 62.84231567382813 120.1913299560547 62.84818267822266 C 120.1911468505859 62.85219192504883 120.1911010742188 62.85327911376953 120.19091796875 62.8572883605957 C 120.1906585693359 62.86315536499023 120.1904449462891 62.86790466308594 120.1901779174805 62.87377166748047 C 120.1900024414063 62.87778091430664 120.1899948120117 62.87790298461914 120.189811706543 62.88191223144531 C 120.1895751953125 62.88724517822266 120.1892700195313 62.89393997192383 120.1890258789063 62.89927291870117 C 120.1889343261719 62.90127944946289 120.1887588500977 62.90518569946289 120.1886672973633 62.90719223022461 C 120.1882781982422 62.91572570800781 120.1879196166992 62.92355728149414 120.1875305175781 62.93209075927734 C 120.1875305175781 62.93209075927734 120.1874847412109 62.93305969238281 120.1874847412109 62.93305969238281 C 120.187141418457 62.94052505493164 120.1867523193359 62.94889831542969 120.186408996582 62.95636367797852 C 120.1862258911133 62.96037292480469 120.1861038208008 62.96293640136719 120.185920715332 62.96694564819336 C 120.1856918334961 62.97174453735352 120.1854553222656 62.97689056396484 120.1852340698242 62.981689453125 C 120.1850433349609 62.98569869995117 120.1849365234375 62.98801803588867 120.1847457885742 62.99202728271484 C 120.1845245361328 62.99682235717773 120.1843109130859 63.00128555297852 120.18408203125 63.00608444213867 C 120.1838989257813 63.01008987426758 120.1837615966797 63.01301193237305 120.1835708618164 63.01701736450195 C 120.1833419799805 63.02181625366211 120.1830978393555 63.0269660949707 120.1828689575195 63.03176116943359 C 120.1827697753906 63.03376770019531 120.182487487793 63.03969955444336 120.1823959350586 63.04170227050781 C 120.1821899414063 63.04596710205078 120.1819152832031 63.05173492431641 120.1817092895508 63.05599975585938 C 120.1815185546875 63.06000518798828 120.1813659667969 63.06320571899414 120.1811676025391 63.06721115112305 C 120.1809387207031 63.0720100402832 120.1807174682617 63.07665634155273 120.1804809570313 63.08145141601563 C 120.180290222168 63.08545684814453 120.1801910400391 63.08757019042969 120.1799926757813 63.09157562255859 C 120.1797561645508 63.09637069702148 120.1795196533203 63.10135269165039 120.1792831420898 63.10614776611328 C 120.179084777832 63.11015319824219 120.1789627075195 63.11270904541016 120.1787643432617 63.11671447753906 C 120.1785049438477 63.12203979492188 120.1783065795898 63.12610626220703 120.1780471801758 63.13143539428711 C 120.177848815918 63.13543701171875 120.177734375 63.13779067993164 120.1775360107422 63.14179611206055 C 120.1772994995117 63.14659118652344 120.1770782470703 63.15097427368164 120.1768417358398 63.15576934814453 C 120.176643371582 63.15977478027344 120.1764984130859 63.16262817382813 120.1763000488281 63.16663360595703 C 120.1760635375977 63.17142868041992 120.1758041381836 63.17663955688477 120.1755599975586 63.18143463134766 C 120.1754608154297 63.18343734741211 120.1751556396484 63.18952560424805 120.1750564575195 63.1915283203125 C 120.1748123168945 63.19631958007813 120.1745529174805 63.20151901245117 120.1743087768555 63.20631408691406 C 120.1742095947266 63.20831298828125 120.1739196777344 63.21413040161133 120.1738128662109 63.21612930297852 C 120.1735458374023 63.22145843505859 120.173225402832 63.22774124145508 120.1729583740234 63.23306655883789 C 120.1728515625 63.23506927490234 120.1726608276367 63.23887634277344 120.1725540161133 63.24087905883789 C 120.1722869873047 63.2462043762207 120.1719970703125 63.25189208984375 120.1717224121094 63.25721740722656 C 120.171516418457 63.26122283935547 120.1714630126953 63.26220321655273 120.171257019043 63.26620483398438 C 120.1709289550781 63.2725944519043 120.1706008911133 63.2790412902832 120.1702651977539 63.28543090820313 C 120.170166015625 63.28743362426758 120.1700973510742 63.28868865966797 120.1699981689453 63.29068756103516 C 120.1695785522461 63.29867553710938 120.1691513061523 63.30691909790039 120.1687316894531 63.31490707397461 C 120.1687316894531 63.31490707397461 120.1686859130859 63.31581115722656 120.1686859130859 63.31581115722656 C 120.1682434082031 63.3243293762207 120.1678237915039 63.3322639465332 120.1673736572266 63.34078216552734 C 120.1672744750977 63.34278106689453 120.1670989990234 63.34601593017578 120.1669921875 63.34801483154297 C 120.1666870117188 63.3538703918457 120.1663818359375 63.35955810546875 120.1660766601563 63.36541366577148 C 120.1658630371094 63.36941528320313 120.165771484375 63.37115097045898 120.1655578613281 63.37514877319336 C 120.1652755737305 63.38047409057617 120.1650161743164 63.38525390625 120.1647338867188 63.39057540893555 C 120.1645202636719 63.39457702636719 120.164436340332 63.39608764648438 120.1642227172852 63.40008544921875 C 120.1639633178711 63.40487670898438 120.1636810302734 63.41017532348633 120.1634216308594 63.41496276855469 C 120.1631011962891 63.42096328735352 120.1630783081055 63.42138671875 120.1627502441406 63.42738723754883 C 120.1625518798828 63.43111038208008 120.1623077392578 63.43561172485352 120.1621017456055 63.43933486938477 C 120.1618881225586 63.44333648681641 120.1616287231445 63.44805145263672 120.1614151000977 63.45204925537109 C 120.1611785888672 63.45630645751953 120.1609802246094 63.45999526977539 120.1607437133789 63.46425247192383 C 120.160530090332 63.4682502746582 120.1603012084961 63.47237777709961 120.1600799560547 63.47637557983398 C 120.1598434448242 63.48063278198242 120.1595764160156 63.485595703125 120.1593399047852 63.48985290527344 C 120.1591186523438 63.49385070800781 120.1589813232422 63.49633407592773 120.1587600708008 63.50033569335938 C 120.1584930419922 63.50512313842773 120.1582336425781 63.50989151000977 120.1579666137695 63.51467895507813 C 120.1577453613281 63.5186767578125 120.157585144043 63.52157211303711 120.157356262207 63.52556991577148 C 120.1570892333984 63.53035736083984 120.1568298339844 63.53509521484375 120.1565628051758 63.53988265991211 C 120.1563339233398 63.54388046264648 120.1562194824219 63.54594039916992 120.1559982299805 63.5499382019043 C 120.1557235717773 63.55472183227539 120.1554107666016 63.56037139892578 120.1551361083984 63.56515502929688 C 120.155029296875 63.56715393066406 120.1547164916992 63.57268142700195 120.1546020507813 63.57468032836914 C 120.1542739868164 63.58053207397461 120.1539688110352 63.58584213256836 120.1536331176758 63.59169387817383 C 120.1535263061523 63.59369277954102 120.1533432006836 63.59688949584961 120.1532287597656 63.59888458251953 C 120.1528930664063 63.604736328125 120.1526107788086 63.60964202880859 120.1522827148438 63.6154899597168 C 120.1521682739258 63.61748886108398 120.15185546875 63.62296295166016 120.151741027832 63.62496185302734 C 120.1514663696289 63.6297492980957 120.1511306762695 63.6354866027832 120.1508560180664 63.6402702331543 C 120.1506271362305 63.64426803588867 120.1505584716797 63.64540100097656 120.1503295898438 63.64939498901367 C 120.1499938964844 63.65524291992188 120.1496353149414 63.66136169433594 120.149299621582 63.66720962524414 C 120.1491851806641 63.66920852661133 120.1490097045898 63.67218780517578 120.1488952636719 63.67418670654297 C 120.1479339599609 63.6906623840332 120.1469268798828 63.70780944824219 120.1459579467773 63.72428131103516 C 120.1459579467773 63.72428131103516 120.1459503173828 63.72435760498047 120.1459503173828 63.72435760498047 C 120.1454544067383 63.73286056518555 120.1449813842773 63.74076461791992 120.1444778442383 63.749267578125 C 120.1443557739258 63.75126266479492 120.1442794799805 63.75255966186523 120.1441650390625 63.75455474853516 C 120.1437835693359 63.76093292236328 120.1433944702148 63.76745223999023 120.1430130004883 63.77383041381836 C 120.1427764892578 63.77782440185547 120.1427612304688 63.77798843383789 120.1425247192383 63.781982421875 C 120.1421737670898 63.78782653808594 120.1418533325195 63.79308319091797 120.1415023803711 63.79892730712891 C 120.1413879394531 63.80092239379883 120.1410827636719 63.80595016479492 120.1409606933594 63.80794525146484 C 120.1406402587891 63.81325912475586 120.1403732299805 63.81769561767578 120.1400451660156 63.8230094909668 C 120.1399307250977 63.82500457763672 120.1394958496094 63.83211898803711 120.1393737792969 63.83411407470703 C 120.1390838623047 63.83889389038086 120.1388092041016 63.84339141845703 120.1385192871094 63.84817123413086 C 120.1382751464844 63.85216522216797 120.1381149291992 63.85468292236328 120.1378707885742 63.85867691040039 C 120.137580871582 63.86345672607422 120.1372909545898 63.86812973022461 120.1370010375977 63.87290954589844 C 120.1367568969727 63.87690353393555 120.1366195678711 63.87908935546875 120.1363754272461 63.88307952880859 C 120.1360778808594 63.88785934448242 120.1357116699219 63.89382553100586 120.1354141235352 63.89860534667969 C 120.1351699829102 63.9025993347168 120.1351089477539 63.90354156494141 120.1348648071289 63.90753173828125 C 120.1345291137695 63.912841796875 120.1342163085938 63.91788482666016 120.1338882446289 63.92319488525391 C 120.1336364746094 63.92718505859375 120.133544921875 63.92865753173828 120.13330078125 63.93264770507813 C 120.1329650878906 63.93795776367188 120.1326065063477 63.94364929199219 120.1322784423828 63.94895935058594 C 120.1321487426758 63.95095443725586 120.1319046020508 63.95493698120117 120.1317749023438 63.95693206787109 C 120.1314086914063 63.96277236938477 120.1310272216797 63.96886825561523 120.1306533813477 63.97470855712891 C 120.1305313110352 63.97670364379883 120.1303482055664 63.97957992553711 120.1302185058594 63.98157501220703 C 120.1298217773438 63.98794555664063 120.1294479370117 63.99374771118164 120.1290435791016 64.0001220703125 C 120.1289215087891 64.00211334228516 120.1287536621094 64.00466918945313 120.1286315917969 64.00666809082031 C 120.1282577514648 64.01251220703125 120.1278533935547 64.01876831054688 120.1274795532227 64.02460479736328 C 120.1273574829102 64.02659606933594 120.1271438598633 64.02992248535156 120.1270141601563 64.03192138671875 C 120.1266098022461 64.03829193115234 120.1261825561523 64.04487609863281 120.1257705688477 64.05123901367188 C 120.1256408691406 64.05323791503906 120.1255569458008 64.05455017089844 120.1254272460938 64.05654144287109 C 120.1238174438477 64.08148193359375 120.1221618652344 64.10697174072266 120.1205215454102 64.13190460205078 C 120.1203918457031 64.13389587402344 120.1205139160156 64.13204956054688 120.1203765869141 64.13404846191406 C 120.1198577880859 64.14199829101563 120.1194000244141 64.14894104003906 120.1188735961914 64.15689849853516 C 120.1187362670898 64.15888977050781 120.1187133789063 64.15922546386719 120.1185836791992 64.16122436523438 C 120.1181259155273 64.16812133789063 120.1176681518555 64.17507934570313 120.1172027587891 64.18196868896484 C 120.1172027587891 64.18196868896484 120.1168441772461 64.18738555908203 120.1168441772461 64.18738555908203 C 120.1164169311523 64.19375610351563 120.1159820556641 64.20027160644531 120.1155548095703 64.20663452148438 C 120.1154251098633 64.20863342285156 120.1151962280273 64.21207427978516 120.1150588989258 64.21406555175781 C 120.1147003173828 64.21937561035156 120.1142959594727 64.22543334960938 120.1139373779297 64.23072814941406 C 120.1138076782227 64.23272705078125 120.1133880615234 64.2388916015625 120.1132507324219 64.24088287353516 C 120.1128921508789 64.24618530273438 120.1126022338867 64.25045776367188 120.1122436523438 64.25576782226563 C 120.1121139526367 64.25775146484375 120.1117553710938 64.26296997070313 120.1116180419922 64.26495361328125 C 120.1112594604492 64.270263671875 120.1109008789063 64.27554321289063 120.1105346679688 64.28085327148438 C 120.1102676391602 64.28483581542969 120.1101913452148 64.28593444824219 120.1099166870117 64.28992462158203 C 120.1095581054688 64.29522705078125 120.1092071533203 64.30036163330078 120.1088409423828 64.3056640625 C 120.1085662841797 64.30964660644531 120.1084823608398 64.31083679199219 120.1082077026367 64.3148193359375 C 120.1078414916992 64.32012939453125 120.1074829101563 64.32540130615234 120.1071166992188 64.33070373535156 C 120.1068420410156 64.33468627929688 120.1067810058594 64.33551025390625 120.1065063476563 64.33949279785156 C 120.1061019897461 64.34532165527344 120.1057205200195 64.35084533691406 120.1053161621094 64.35667419433594 C 120.1051788330078 64.35866546630859 120.1049652099609 64.36170959472656 120.1048278808594 64.36369323730469 C 120.1044235229492 64.36952209472656 120.1039505004883 64.37625122070313 120.1035461425781 64.382080078125 C 120.103401184082 64.38406372070313 120.1032180786133 64.38679504394531 120.1030731201172 64.38877868652344 C 120.1026306152344 64.3951416015625 120.1022415161133 64.40061950683594 120.1017990112305 64.406982421875 C 120.1016540527344 64.40896606445313 120.1014556884766 64.41181945800781 120.101318359375 64.41381072998047 C 120.1009063720703 64.41963195800781 120.1004638671875 64.4259033203125 120.1000518798828 64.43173217773438 C 120.0997695922852 64.43571472167969 120.0998229980469 64.43498229980469 120.0995407104492 64.43896484375 C 120.0990905761719 64.44532012939453 120.0985870361328 64.452392578125 120.0981292724609 64.45875549316406 C 120.0979919433594 64.46074676513672 120.0979385375977 64.46147155761719 120.0978012084961 64.46346282958984 C 120.0971908569336 64.47193908691406 120.0966720581055 64.47920227050781 120.0960693359375 64.48768615722656 C 120.0960693359375 64.48768615722656 120.0960159301758 64.48834991455078 120.0960159301758 64.48834991455078 C 120.0948028564453 64.50529479980469 120.093620300293 64.52173614501953 120.0923919677734 64.53868103027344 C 120.0922470092773 64.54067230224609 120.0922546386719 64.54051971435547 120.0921096801758 64.54251098632813 C 120.0916137695313 64.54939270019531 120.091064453125 64.55685424804688 120.0905685424805 64.56373596191406 C 120.0904235839844 64.56573486328125 120.0903472900391 64.56678009033203 120.0901947021484 64.56877136230469 C 120.0897369384766 64.57511901855469 120.0892333984375 64.58201599121094 120.0887680053711 64.58836364746094 C 120.0886154174805 64.59035491943359 120.0883941650391 64.59343719482422 120.0882415771484 64.59542846679688 C 120.087776184082 64.60177612304688 120.08740234375 64.60684967041016 120.0869369506836 64.61320495605469 C 120.0867919921875 64.61518859863281 120.0865249633789 64.61878967285156 120.0863800048828 64.62078094482422 C 120.0859451293945 64.62660217285156 120.0855407714844 64.63204193115234 120.0851135253906 64.63786315917969 C 120.0849609375 64.63985443115234 120.0846557617188 64.64404296875 120.0845031738281 64.64602661132813 C 120.0840759277344 64.65184783935547 120.0836639404297 64.65737915039063 120.0832290649414 64.66320037841797 C 120.0830764770508 64.66519165039063 120.0828323364258 64.66847229003906 120.0826873779297 64.67045593261719 C 120.0822525024414 64.67628479003906 120.0817947387695 64.68235778808594 120.0813598632813 64.68817901611328 C 120.0812072753906 64.69017028808594 120.0809707641602 64.69334411621094 120.0808181762695 64.69532775878906 C 120.0803451538086 64.70167541503906 120.0799102783203 64.70745849609375 120.0794296264648 64.71380615234375 C 120.0792770385742 64.71579742431641 120.0791244506836 64.71780395507813 120.0789794921875 64.71979522705078 C 120.078498840332 64.72615051269531 120.0780181884766 64.73243713378906 120.0775375366211 64.73879241943359 C 120.077392578125 64.74078369140625 120.0772323608398 64.74283599853516 120.0770797729492 64.74482727050781 C 120.0765991210938 64.75117492675781 120.0760879516602 64.75785827636719 120.0756072998047 64.76420593261719 C 120.0754547119141 64.76618957519531 120.0753326416016 64.76779937744141 120.0751800537109 64.76979064941406 C 120.0746917724609 64.77613830566406 120.07421875 64.78236389160156 120.07373046875 64.78871154785156 C 120.0735778808594 64.79070281982422 120.0733947753906 64.79310607910156 120.0732421875 64.79508972167969 C 120.07275390625 64.80143737792969 120.0722808837891 64.80760192871094 120.0717926025391 64.81394958496094 C 120.0716400146484 64.81593322753906 120.0714797973633 64.81794738769531 120.0713272094727 64.81993103027344 C 120.0708389282227 64.82627868652344 120.0702972412109 64.83328247070313 120.0698013305664 64.83963012695313 C 120.0696487426758 64.84161376953125 120.0695571899414 64.84284973144531 120.0694046020508 64.84483337402344 C 120.0688247680664 64.85223388671875 120.068229675293 64.85992431640625 120.0676498413086 64.86732482910156 C 120.067497253418 64.86931610107422 120.0676345825195 64.86758422851563 120.0674743652344 64.86956787109375 C 120.0654983520508 64.89494323730469 120.0635375976563 64.91982269287109 120.0615234375 64.9451904296875 C 120.0613708496094 64.94718170166016 120.0615234375 64.94522094726563 120.0613632202148 64.94720458984375 C 120.0607757568359 64.95460510253906 120.0601654052734 64.96229553222656 120.0595779418945 64.96969604492188 C 120.0595779418945 64.96969604492188 120.0591125488281 64.97552490234375 120.0591125488281 64.97552490234375 C 120.0586090087891 64.98187255859375 120.0581207275391 64.98797607421875 120.0576095581055 64.99431610107422 C 120.0574493408203 64.99629974365234 120.0572052001953 64.99940490722656 120.0570449829102 65.00138854980469 C 120.0565338134766 65.00773620605469 120.0561065673828 65.01303100585938 120.0555953979492 65.01937103271484 C 120.0554351806641 65.0213623046875 120.0551910400391 65.02444458007813 120.0550308227539 65.02642822265625 C 120.054557800293 65.03224182128906 120.0541152954102 65.03770446777344 120.0536499023438 65.04351806640625 C 120.0534896850586 65.04550170898438 120.0530700683594 65.05066680908203 120.0529098510742 65.05265808105469 C 120.0524749755859 65.05793762207031 120.0520477294922 65.06320190429688 120.0516204833984 65.0684814453125 C 120.0513000488281 65.07245635986328 120.0512542724609 65.072998046875 120.0509262084961 65.07696533203125 C 120.0504989624023 65.08225250244141 120.0500030517578 65.08830261230469 120.0495758056641 65.09358215332031 C 120.0492477416992 65.09755706787109 120.0492477416992 65.09759521484375 120.0489196777344 65.10157012939453 C 120.0484466552734 65.10737609863281 120.047981262207 65.11302947998047 120.0475006103516 65.11883544921875 C 120.0473403930664 65.12082672119141 120.0470657348633 65.12416076660156 120.0469055175781 65.12614440917969 C 120.0464248657227 65.13195037841797 120.0458984375 65.13827514648438 120.0454254150391 65.14408874511719 C 120.0452575683594 65.14607238769531 120.0450210571289 65.14895629882813 120.0448532104492 65.15093994140625 C 120.0443725585938 65.15675354003906 120.0438003540039 65.16363525390625 120.0433197021484 65.16944885253906 C 120.0431594848633 65.17143249511719 120.04296875 65.17369079589844 120.0428009033203 65.17567443847656 C 120.0422744750977 65.1820068359375 120.0417633056641 65.18813323974609 120.0412368774414 65.19447326660156 C 120.0410690307617 65.19645690917969 120.040885925293 65.19866943359375 120.0407180786133 65.20065307617188 C 120.0401458740234 65.20751190185547 120.0395889282227 65.21419525146484 120.0390090942383 65.22105407714844 C 120.0390090942383 65.22105407714844 120.0386734008789 65.22511291503906 120.0386734008789 65.22511291503906 C 120.0380554199219 65.23249816894531 120.0374755859375 65.23931121826172 120.0368576049805 65.2467041015625 C 120.0366897583008 65.24868774414063 120.0367279052734 65.24824523925781 120.0365600585938 65.25022888183594 C 120.0337066650391 65.28400421142578 120.0309295654297 65.31660461425781 120.0280227661133 65.35036468505859 C 120.0278549194336 65.35234069824219 120.0278778076172 65.35202026367188 120.0277099609375 65.35400390625 C 120.0271224975586 65.36085510253906 120.0264511108398 65.36857604980469 120.0258560180664 65.37543487548828 C 120.0258560180664 65.37543487548828 120.025505065918 65.37950134277344 120.025505065918 65.37950134277344 C 120.0249099731445 65.38636016845703 120.0243377685547 65.39297485351563 120.0237426757813 65.39984130859375 C 120.0235748291016 65.40181732177734 120.0233688354492 65.40413665771484 120.0232009887695 65.40611267089844 C 120.0226440429688 65.41244506835938 120.0221328735352 65.41832733154297 120.0215835571289 65.42465209960938 C 120.0214080810547 65.4266357421875 120.0211563110352 65.42951965332031 120.0209808349609 65.43150329589844 C 120.0204772949219 65.43730163574219 120.0199661254883 65.44316101074219 120.0194549560547 65.44895935058594 C 120.0192794799805 65.45094299316406 120.0189208984375 65.45505523681641 120.0187454223633 65.45703125 C 120.0182342529297 65.46283721923828 120.0177459716797 65.46841430664063 120.0172348022461 65.47421264648438 C 120.0170593261719 65.4761962890625 120.0167846679688 65.47927856445313 120.0166091918945 65.48126220703125 C 120.0160522460938 65.48757934570313 120.0155715942383 65.49307250976563 120.015007019043 65.49940490722656 C 120.0148315429688 65.50138854980469 120.0146102905273 65.50393676757813 120.0144271850586 65.50592041015625 C 120.0138702392578 65.51225280761719 120.0133056640625 65.5185546875 120.0127487182617 65.52488708496094 C 120.0125732421875 65.52686309814453 120.0124206542969 65.528564453125 120.0122451782227 65.53054809570313 C 120.0116806030273 65.536865234375 120.0111236572266 65.54307556152344 120.0105590820313 65.54940795898438 C 120.010383605957 65.55138397216797 120.0101699829102 65.55375671386719 120.0099945068359 65.55574035644531 C 120.0093765258789 65.56259155273438 120.0088729858398 65.5682373046875 120.0082550048828 65.57508850097656 C 120.0080795288086 65.57706451416016 120.0079650878906 65.57832336425781 120.0077896118164 65.58029937744141 C 120.0071716308594 65.58715057373047 120.0065612792969 65.59393310546875 120.0059432983398 65.60078430175781 C 120.0059432983398 65.60078430175781 120.0055541992188 65.60507202148438 120.0055541992188 65.60507202148438 C 120.0049362182617 65.61192321777344 120.0042114257813 65.61995697021484 120.0035858154297 65.62680053710938 C 120.0035858154297 65.62680053710938 120.003303527832 65.62992858886719 120.003303527832 65.62992858886719 C 120.0025863647461 65.63783264160156 120.0019607543945 65.644775390625 120.0012359619141 65.65267944335938 C 120.0010528564453 65.6546630859375 120.0012130737305 65.65294647216797 120.0010299682617 65.65492248535156 C 119.9987258911133 65.68021392822266 119.9964752197266 65.70475769042969 119.994140625 65.73004150390625 C 119.9939575195313 65.73201751708984 119.9939880371094 65.73165893554688 119.9938049316406 65.73362731933594 C 119.9931716918945 65.740478515625 119.9925079345703 65.74760437011719 119.9918746948242 65.75445556640625 C 119.9915084838867 65.75840759277344 119.991584777832 65.75755310058594 119.9912185668945 65.76151275634766 C 119.9906768798828 65.76730346679688 119.990119934082 65.77330017089844 119.9895858764648 65.77909088134766 C 119.9893951416016 65.78106689453125 119.9890594482422 65.78466796875 119.9888763427734 65.78665161132813 C 119.9883880615234 65.79191589355469 119.9877624511719 65.798583984375 119.9872665405273 65.80384826660156 C 119.9870834350586 65.80583190917969 119.9866943359375 65.80998992919922 119.9865112304688 65.81196594238281 C 119.9860153198242 65.81723022460938 119.9854736328125 65.82296752929688 119.984977722168 65.82823181152344 C 119.9847946166992 65.83021545410156 119.9843139648438 65.83531188964844 119.984130859375 65.83728790283203 C 119.9836807250977 65.84202575683594 119.9831314086914 65.84786987304688 119.9826812744141 65.85261535644531 C 119.982307434082 65.8565673828125 119.9821395874023 65.85832214355469 119.9817657470703 65.86227416992188 C 119.9812698364258 65.86753845214844 119.9807586669922 65.87289428710938 119.9802627563477 65.87815856933594 C 119.9798889160156 65.88211059570313 119.9799118041992 65.88185119628906 119.9795379638672 65.88580322265625 C 119.9789352416992 65.89212036132813 119.9784545898438 65.89720153808594 119.9778518676758 65.90351867675781 C 119.9776611328125 65.90550231933594 119.9773635864258 65.90857696533203 119.977180480957 65.91055297851563 C 119.9766235351563 65.91634368896484 119.9760665893555 65.92221069335938 119.9755096435547 65.92799377441406 C 119.9753189086914 65.92996978759766 119.974967956543 65.93363952636719 119.9747772216797 65.93562316894531 C 119.9742279052734 65.94140625 119.9737091064453 65.94674682617188 119.9731597900391 65.95252990722656 C 119.9729690551758 65.95451354980469 119.9725875854492 65.95848846435547 119.9723968505859 65.96046447753906 C 119.9718399047852 65.96624755859375 119.9711685180664 65.97313690185547 119.9706115722656 65.97892761230469 C 119.9704208374023 65.98089599609375 119.9702606201172 65.98252868652344 119.9700698852539 65.98451232910156 C 119.9694137573242 65.99134826660156 119.96875 65.99814605712891 119.9680862426758 66.00498199462891 C 119.9680862426758 66.00498199462891 119.9676742553711 66.00927734375 119.9676742553711 66.00927734375 C 119.9669570922852 66.01664733886719 119.9661865234375 66.02459716796875 119.9654693603516 66.03195190429688 C 119.9652709960938 66.033935546875 119.9654693603516 66.03192138671875 119.9652786254883 66.03388977050781 C 119.9612274169922 66.075439453125 119.9571304321289 66.11700439453125 119.952995300293 66.15852355957031 C 119.9527969360352 66.16049957275391 119.9526519775391 66.16192626953125 119.9524536132813 66.16389465332031 C 119.9518280029297 66.17019653320313 119.9511108398438 66.17741394042969 119.9504776000977 66.1837158203125 C 119.9502792358398 66.18569946289063 119.9502105712891 66.18638610839844 119.9500122070313 66.18836212158203 C 119.9493255615234 66.1951904296875 119.9486999511719 66.20143127441406 119.9480133056641 66.20826721191406 C 119.9478149414063 66.21023559570313 119.947639465332 66.21202087402344 119.9474411010742 66.2139892578125 C 119.9468078613281 66.22029113769531 119.9461669921875 66.22660827636719 119.9455337524414 66.23291015625 C 119.9453353881836 66.23488616943359 119.9450759887695 66.23745727539063 119.9448776245117 66.23944091796875 C 119.9442901611328 66.24521636962891 119.9436569213867 66.25149536132813 119.9430694580078 66.25727081298828 C 119.94287109375 66.25924682617188 119.9425582885742 66.26235961914063 119.9423599243164 66.26433563232422 C 119.9417190551758 66.27064514160156 119.9411163330078 66.27658081054688 119.9404754638672 66.28288269042969 C 119.9402694702148 66.28485870361328 119.9400787353516 66.28672790527344 119.9398803710938 66.2886962890625 C 119.9392395019531 66.29499816894531 119.9385986328125 66.30125427246094 119.9379577636719 66.30755615234375 C 119.9377593994141 66.30952453613281 119.9375457763672 66.31161499023438 119.9373397827148 66.31358337402344 C 119.9366989135742 66.31988525390625 119.9360580444336 66.32611083984375 119.935417175293 66.33241271972656 C 119.9352111816406 66.33438110351563 119.9349899291992 66.33657836914063 119.9347839355469 66.33856201171875 C 119.9341354370117 66.34486389160156 119.9335021972656 66.35102844238281 119.9328536987305 66.35732269287109 C 119.9326477050781 66.35929870605469 119.9324493408203 66.36122131347656 119.9322509765625 66.36319732666016 C 119.9315490722656 66.37002563476563 119.9308624267578 66.37662506103516 119.9301605224609 66.38345336914063 C 119.9301605224609 66.38345336914063 119.9297180175781 66.38770294189453 119.9297180175781 66.38770294189453 C 119.928955078125 66.39505004882813 119.9281234741211 66.40308380126953 119.927360534668 66.41043090820313 C 119.927360534668 66.41043090820313 119.9271774291992 66.41220092773438 119.9271774291992 66.41220092773438 C 119.9236907958984 66.44579315185547 119.9202346801758 66.47881317138672 119.9166870117188 66.51239013671875 C 119.9164810180664 66.51435852050781 119.9166564941406 66.51263427734375 119.9164505004883 66.51460266113281 C 119.9156723022461 66.52195739746094 119.9148864746094 66.52941131591797 119.9141082763672 66.53675842285156 C 119.9139022827148 66.53872680664063 119.9137344360352 66.54024505615234 119.9135284423828 66.54221343994141 C 119.9128646850586 66.54850769042969 119.9121627807617 66.55509948730469 119.911491394043 66.56139373779297 C 119.9112854003906 66.56336975097656 119.9109802246094 66.56617736816406 119.910774230957 66.56814575195313 C 119.91015625 66.57392120361328 119.9095153808594 66.5799560546875 119.9088973999023 66.58572387695313 C 119.9086837768555 66.58769226074219 119.9082565307617 66.59173583984375 119.9080429077148 66.59371185302734 C 119.9074859619141 66.59895324707031 119.9068298339844 66.60501861572266 119.9062728881836 66.61026000976563 C 119.9060592651367 66.61222839355469 119.9055938720703 66.61656188964844 119.9053802490234 66.6185302734375 C 119.9047622680664 66.62429809570313 119.9042205810547 66.62934112548828 119.9036026000977 66.63510894775391 C 119.9033889770508 66.6370849609375 119.9029693603516 66.64100646972656 119.9027557373047 66.64297485351563 C 119.9021911621094 66.64822387695313 119.9015426635742 66.65420532226563 119.9009780883789 66.65944671630859 C 119.9005508422852 66.66339111328125 119.9004516601563 66.66432952880859 119.9000244140625 66.66827392578125 C 119.8994522094727 66.67350769042969 119.8988418579102 66.67916870117188 119.8982772827148 66.68441772460938 C 119.8978500366211 66.6883544921875 119.8978424072266 66.68836975097656 119.8974151611328 66.69230651855469 C 119.8967895507813 66.69807434082031 119.8961944580078 66.70353698730469 119.8955688476563 66.70930480957031 C 119.8953552246094 66.71127319335938 119.8949356079102 66.715087890625 119.8947219848633 66.71705627441406 C 119.8940963745117 66.72282409667969 119.8934783935547 66.72849273681641 119.8928451538086 66.7342529296875 C 119.8926315307617 66.73622894287109 119.8922653198242 66.73956298828125 119.8920516967773 66.74153137207031 C 119.8913650512695 66.74782562255859 119.8908386230469 66.75259399414063 119.8901443481445 66.75888824462891 C 119.8899307250977 66.76085662841797 119.889533996582 66.76445770263672 119.8893203735352 66.76643371582031 C 119.8885726928711 66.77323913574219 119.887939453125 66.77896118164063 119.8871917724609 66.78578186035156 C 119.8871917724609 66.78578186035156 119.8866882324219 66.79032897949219 119.8866882324219 66.79032897949219 C 119.8859405517578 66.79713439941406 119.8850250244141 66.80541229248047 119.8842697143555 66.81222534179688 C 119.8840560913086 66.81419372558594 119.8841705322266 66.8131103515625 119.8839569091797 66.81507873535156 C 119.880241394043 66.84860229492188 119.8766098022461 66.88119506835938 119.8728408813477 66.91470336914063 C 119.8726196289063 66.91667175292969 119.8727569580078 66.91549682617188 119.8725357055664 66.91746520996094 C 119.8716506958008 66.92532348632813 119.8709182739258 66.93180847167969 119.8700332641602 66.93966674804688 C 119.8700332641602 66.93966674804688 119.8696670532227 66.94291687011719 119.8696670532227 66.94291687011719 C 119.868896484375 66.94972229003906 119.8680801391602 66.95698547363281 119.8673095703125 66.96379089355469 C 119.8670883178711 66.96575927734375 119.8668899536133 66.96746826171875 119.8666687011719 66.96943664550781 C 119.8659591674805 66.97571563720703 119.8651733398438 66.98262023925781 119.8644561767578 66.98889923095703 C 119.8642349243164 66.99086761474609 119.8641204833984 66.99191284179688 119.8638916015625 66.99388122558594 C 119.8631210327148 67.00068664550781 119.862419128418 67.0068359375 119.8616409301758 67.01364135742188 C 119.8614196777344 67.01560974121094 119.8613128662109 67.01656341552734 119.861083984375 67.01852416992188 C 119.8603057861328 67.02532958984375 119.8595352172852 67.03211212158203 119.858757019043 67.03890991210938 C 119.858757019043 67.03890991210938 119.8582611083984 67.043212890625 119.8582611083984 67.043212890625 C 119.8575439453125 67.04948425292969 119.8567504882813 67.05644226074219 119.8560256958008 67.06271362304688 C 119.8557968139648 67.06468200683594 119.8555297851563 67.06703186035156 119.8553009033203 67.06900024414063 C 119.8545837402344 67.07527923583984 119.853874206543 67.08139038085938 119.853157043457 67.08767700195313 C 119.8529281616211 67.08963775634766 119.8527145385742 67.09148406982422 119.8524856567383 67.09345245361328 C 119.8517608642578 67.0997314453125 119.8509368896484 67.10688781738281 119.850212097168 67.1131591796875 C 119.849983215332 67.11512756347656 119.8499069213867 67.11578369140625 119.8496780395508 67.11775207519531 C 119.8488922119141 67.12455749511719 119.8481292724609 67.13113403320313 119.8473358154297 67.13793182373047 C 119.8471069335938 67.139892578125 119.8469924926758 67.14088439941406 119.8467636108398 67.14284515380859 C 119.8460388183594 67.14912414550781 119.8452453613281 67.15594482421875 119.8445129394531 67.16221618652344 C 119.8442840576172 67.1641845703125 119.844108581543 67.16569519042969 119.843879699707 67.16766357421875 C 119.8429641723633 67.17550659179688 119.8420715332031 67.18310546875 119.8411560058594 67.19094848632813 C 119.8411560058594 67.19094848632813 119.8410873413086 67.19157409667969 119.8410873413086 67.19157409667969 C 119.835205078125 67.24176788330078 119.8293609619141 67.29118347167969 119.823356628418 67.34135437011719 C 119.823356628418 67.34135437011719 119.8230361938477 67.34405517578125 119.8230361938477 67.34405517578125 C 119.8221588134766 67.35136413574219 119.8213348388672 67.35826110839844 119.8204574584961 67.36557006835938 C 119.8202209472656 67.36753845214844 119.8201065063477 67.36849975585938 119.8198699951172 67.37046051025391 C 119.8190536499023 67.37725067138672 119.8182678222656 67.3837890625 119.8174514770508 67.39057922363281 C 119.8172149658203 67.39254760742188 119.8171768188477 67.39282989501953 119.8169403076172 67.39479064941406 C 119.8161239624023 67.40158081054688 119.8153381347656 67.40811157226563 119.8145217895508 67.41490173339844 C 119.8142776489258 67.41685485839844 119.8140716552734 67.41859436035156 119.813835144043 67.42054748535156 C 119.8130798339844 67.42681884765625 119.8123092651367 67.43316650390625 119.8115463256836 67.43943786621094 C 119.8113098144531 67.44139099121094 119.8110733032227 67.44332885742188 119.8108367919922 67.44529724121094 C 119.8101425170898 67.45103454589844 119.8093414306641 67.45761871337891 119.8086395263672 67.46336364746094 C 119.8084030151367 67.46532440185547 119.8079605102539 67.46893310546875 119.8077239990234 67.47089385986328 C 119.8070220947266 67.47663879394531 119.8063125610352 67.48245239257813 119.8056182861328 67.48819732666016 C 119.8053741455078 67.49015808105469 119.8050308227539 67.49301147460938 119.8047866821289 67.49496459960938 C 119.804084777832 67.50070953369141 119.8032455444336 67.50758361816406 119.8025436401367 67.51332092285156 C 119.8022994995117 67.51528930664063 119.8020095825195 67.51766967773438 119.8017654418945 67.51963806152344 C 119.8010025024414 67.52589416503906 119.8002243041992 67.5322265625 119.7994537353516 67.53849029541016 C 119.7992095947266 67.54045104980469 119.7990188598633 67.54204559326172 119.7987747192383 67.54400634765625 C 119.7979431152344 67.55079650878906 119.7971649169922 67.55708312988281 119.7963256835938 67.56387329101563 C 119.7963256835938 67.56387329101563 119.7957458496094 67.56858062744141 119.7957458496094 67.56858062744141 C 119.7896270751953 67.6181640625 119.7834320068359 67.66781616210938 119.7771911621094 67.71736145019531 C 119.7771911621094 67.71736145019531 119.7769317626953 67.71939849853516 119.7769317626953 67.71939849853516 C 119.7759475708008 67.72721862792969 119.7749862670898 67.73484039306641 119.7739944458008 67.74266052246094 C 119.7739944458008 67.74266052246094 119.7738952636719 67.74348449707031 119.7738952636719 67.74348449707031 C 119.7729034423828 67.75129699707031 119.7719116210938 67.75914001464844 119.7709197998047 67.7669677734375 C 119.7706680297852 67.7689208984375 119.7708282470703 67.76766967773438 119.7705841064453 67.76963043212891 C 119.7696533203125 67.77693176269531 119.7686538696289 67.7847900390625 119.7677307128906 67.79208374023438 C 119.7674789428711 67.79405212402344 119.767692565918 67.79238128662109 119.7674407958984 67.79434204101563 C 119.7665100097656 67.8016357421875 119.7656173706055 67.80867767333984 119.7646789550781 67.81597900390625 C 119.7644348144531 67.81793212890625 119.7643814086914 67.81832122802734 119.7641296386719 67.82028198242188 C 119.7631988525391 67.82757568359375 119.7624435424805 67.83351135253906 119.7615051269531 67.84080505371094 C 119.7615051269531 67.84080505371094 119.7609558105469 67.84512329101563 119.7609558105469 67.84512329101563 C 119.7600860595703 67.85189819335938 119.7593078613281 67.85795593261719 119.7584381103516 67.86473083496094 C 119.758186340332 67.86668395996094 119.7579727172852 67.86837768554688 119.7577209472656 67.87033081054688 C 119.7569122314453 67.8765869140625 119.7559432983398 67.88414764404297 119.7551345825195 67.89040374755859 C 119.7548828125 67.89236450195313 119.7548599243164 67.89250183105469 119.7546081542969 67.89446258544922 C 119.7537384033203 67.90123748779297 119.752799987793 67.90850830078125 119.7519226074219 67.915283203125 C 119.7516708374023 67.91724395751953 119.7516708374023 67.91720581054688 119.7514190673828 67.91917419433594 C 119.7504730224609 67.92646789550781 119.7493743896484 67.9349365234375 119.7484283447266 67.94223022460938 C 119.7484283447266 67.94223022460938 119.7482986450195 67.94325256347656 119.7482986450195 67.94325256347656 C 119.7418060302734 67.99325561523438 119.7353363037109 68.04257202148438 119.7287216186523 68.09254455566406 C 119.7287216186523 68.09254455566406 119.7284317016602 68.09475708007813 119.7284317016602 68.09475708007813 C 119.7273941040039 68.10256195068359 119.7264862060547 68.10943603515625 119.7254486083984 68.11724090576172 C 119.7254486083984 68.11724090576172 119.7250823974609 68.12002563476563 119.7250823974609 68.12002563476563 C 119.7240447998047 68.12782287597656 119.7231521606445 68.13451385498047 119.7221145629883 68.14231872558594 C 119.7221145629883 68.14231872558594 119.7218475341797 68.14431762695313 119.7218475341797 68.14431762695313 C 119.7208786010742 68.15160369873047 119.7198715209961 68.15910339355469 119.7189025878906 68.1663818359375 C 119.7186431884766 68.16834259033203 119.7185745239258 68.16883850097656 119.7183151245117 68.17079162597656 C 119.7174072265625 68.17755126953125 119.7165603637695 68.18387603759766 119.7156524658203 68.19063568115234 C 119.7153930664063 68.19259643554688 119.715202331543 68.19401550292969 119.7149429321289 68.19596862792969 C 119.7141036987305 68.20220947265625 119.713264465332 68.20844268798828 119.7124252319336 68.21468353271484 C 119.7118988037109 68.21859741210938 119.712043762207 68.21752166748047 119.7115173339844 68.221435546875 C 119.7106781005859 68.22767639160156 119.7099914550781 68.23276519775391 119.7091522216797 68.239013671875 C 119.7088851928711 68.240966796875 119.7084884643555 68.24393463134766 119.7082214355469 68.24588775634766 C 119.7074508666992 68.25160980224609 119.7066192626953 68.25776672363281 119.7058410644531 68.26348876953125 C 119.7055816650391 68.26544189453125 119.7051391601563 68.2686767578125 119.7048797607422 68.2706298828125 C 119.7040328979492 68.27687072753906 119.703239440918 68.28269958496094 119.702392578125 68.28893280029297 C 119.7021331787109 68.2908935546875 119.7018966674805 68.2926025390625 119.7016296386719 68.29456329345703 C 119.7007141113281 68.30132293701172 119.6999282836914 68.30711364746094 119.6990051269531 68.31387329101563 C 119.6987380981445 68.31582641601563 119.6985473632813 68.31721496582031 119.6982803344727 68.31916809082031 C 119.6972198486328 68.32696533203125 119.6962203979492 68.33428955078125 119.6951599121094 68.34208679199219 C 119.6951599121094 68.34208679199219 119.6950607299805 68.34278869628906 119.6950607299805 68.34278869628906 C 119.6939239501953 68.35110473632813 119.6929016113281 68.35858154296875 119.691764831543 68.36689758300781 C 119.6914978027344 68.36885070800781 119.6919097900391 68.36579895019531 119.6916427612305 68.36775207519531 C 119.6870880126953 68.40101623535156 119.6825180053711 68.43412017822266 119.6779022216797 68.46736145019531 C 119.6779022216797 68.46736145019531 119.6779022216797 68.4674072265625 119.6779022216797 68.4674072265625 C 119.6755905151367 68.48402404785156 119.6733551025391 68.50007629394531 119.6710357666016 68.51669311523438 C 119.6710357666016 68.51669311523438 119.6707763671875 68.51856994628906 119.6707763671875 68.51856994628906 C 119.6696853637695 68.5263671875 119.6686553955078 68.53373718261719 119.6675643920898 68.54153442382813 C 119.6672897338867 68.54347991943359 119.6675567626953 68.54156494140625 119.6672821044922 68.54351806640625 C 119.6662673950195 68.55078887939453 119.6652145385742 68.55828857421875 119.664192199707 68.5655517578125 C 119.6639175415039 68.5675048828125 119.6639251708984 68.56745147705078 119.6636505126953 68.56940460205078 C 119.6626281738281 68.57667541503906 119.6617126464844 68.58319091796875 119.6606903076172 68.59046173095703 C 119.6606903076172 68.59046173095703 119.6601943969727 68.59394836425781 119.6601943969727 68.59394836425781 C 119.6591720581055 68.60121917724609 119.6583099365234 68.60736083984375 119.6572799682617 68.6146240234375 C 119.6572799682617 68.6146240234375 119.6566543579102 68.61904144287109 119.6566543579102 68.61904144287109 C 119.6557006835938 68.62579345703125 119.6547698974609 68.63237762451172 119.6538162231445 68.63912963867188 C 119.6535339355469 68.64107513427734 119.6533889770508 68.64213562011719 119.6531066894531 68.64408874511719 C 119.652229309082 68.65031433105469 119.6513366699219 68.65658569335938 119.6504516601563 68.66281127929688 C 119.6501770019531 68.66476440429688 119.6498565673828 68.6669921875 119.6495819091797 68.6689453125 C 119.6486206054688 68.67568969726563 119.6477355957031 68.68187713623047 119.6467742919922 68.68862152099609 C 119.6464996337891 68.69056701660156 119.6464309692383 68.69102478027344 119.6461563110352 68.69297790527344 C 119.6451187133789 68.70024108886719 119.6439743041992 68.70826721191406 119.642936706543 68.71553039550781 C 119.642936706543 68.71553039550781 119.6427459716797 68.71685791015625 119.6427459716797 68.71685791015625 C 119.6356201171875 68.76666259765625 119.6284942626953 68.81600952148438 119.6212463378906 68.86577606201172 C 119.6212463378906 68.86577606201172 119.6211318969727 68.8665771484375 119.6211318969727 68.8665771484375 C 119.6199264526367 68.8748779296875 119.6188583374023 68.8822021484375 119.6176452636719 68.89049530029297 C 119.6176452636719 68.89049530029297 119.6174697875977 68.89167785644531 119.6174697875977 68.89167785644531 C 119.6163330078125 68.89945983886719 119.6151809692383 68.90733337402344 119.6140441894531 68.91511535644531 C 119.6140441894531 68.91511535644531 119.6137619018555 68.91703796386719 119.6137619018555 68.91703796386719 C 119.6127014160156 68.92428588867188 119.6114883422852 68.93252563476563 119.6104278564453 68.93977355957031 C 119.6101379394531 68.94172668457031 119.6103973388672 68.93998718261719 119.610107421875 68.94192504882813 C 119.6090469360352 68.94918823242188 119.6079711914063 68.95648193359375 119.6069030761719 68.96372985839844 C 119.6066131591797 68.96568298339844 119.6065826416016 68.96589660644531 119.6062927246094 68.96784210205078 C 119.6053009033203 68.97457885742188 119.604248046875 68.98173522949219 119.6032562255859 68.98846435546875 C 119.6032562255859 68.98846435546875 119.6027069091797 68.99217224121094 119.6027069091797 68.99217224121094 C 119.6017074584961 68.9989013671875 119.6006546020508 69.00604248046875 119.5996551513672 69.01277923583984 C 119.599365234375 69.01472473144531 119.5992660522461 69.01542663574219 119.5989761352539 69.01737976074219 C 119.5979766845703 69.02410888671875 119.5970993041992 69.03004455566406 119.5960922241211 69.03677368164063 C 119.5958099365234 69.03872680664063 119.5955810546875 69.04022979736328 119.5952911376953 69.04217529296875 C 119.594367980957 69.04838562011719 119.5934219360352 69.05476379394531 119.5924987792969 69.06097412109375 C 119.5922088623047 69.06292724609375 119.591911315918 69.06491851806641 119.5916213989258 69.06686401367188 C 119.5905380249023 69.07411193847656 119.5894317626953 69.08154296875 119.5883483886719 69.08879089355469 C 119.5883483886719 69.08879089355469 119.5881576538086 69.09004211425781 119.5881576538086 69.09004211425781 C 119.5869979858398 69.09780883789063 119.5857772827148 69.10596466064453 119.5846099853516 69.11373138427734 C 119.5846099853516 69.11373138427734 119.5844421386719 69.11485290527344 119.5844421386719 69.11485290527344 C 119.5745086669922 69.18111419677734 119.5645599365234 69.24676513671875 119.5544128417969 69.31295776367188 C 119.5544128417969 69.31295776367188 119.5542602539063 69.31391906738281 119.5542602539063 69.31391906738281 C 119.5529937744141 69.32218933105469 119.5518951416016 69.32936096191406 119.5506210327148 69.33763122558594 C 119.5503234863281 69.33956909179688 119.5507278442383 69.33694458007813 119.5504302978516 69.33889770507813 C 119.54931640625 69.34613037109375 119.5480422973633 69.35440063476563 119.5469207763672 69.36163330078125 C 119.5469207763672 69.36163330078125 119.5464935302734 69.36442565917969 119.5464935302734 69.36442565917969 C 119.5453796386719 69.37165832519531 119.5442047119141 69.37924194335938 119.5430908203125 69.38648223876953 C 119.5430908203125 69.38648223876953 119.5427017211914 69.38900756835938 119.5427017211914 69.38900756835938 C 119.5415802001953 69.396240234375 119.5404052734375 69.40380859375 119.5392837524414 69.41104125976563 C 119.5392837524414 69.41104125976563 119.5388870239258 69.41361999511719 119.5388870239258 69.41361999511719 C 119.5377655029297 69.42085266113281 119.5365371704102 69.42878723144531 119.5354080200195 69.43601989746094 C 119.5351104736328 69.43796539306641 119.5353775024414 69.43624877929688 119.5350723266602 69.43819427490234 C 119.5339431762695 69.4454345703125 119.5327377319336 69.45319366455078 119.531608581543 69.46043395996094 C 119.531608581543 69.46043395996094 119.5312271118164 69.46290588378906 119.5312271118164 69.46290588378906 C 119.5196228027344 69.53730773925781 119.5080413818359 69.61067199707031 119.4961700439453 69.68499755859375 C 119.4961700439453 69.68499755859375 119.4960327148438 69.68585205078125 119.4960327148438 69.68585205078125 C 119.4947967529297 69.69358825683594 119.493537902832 69.70147705078125 119.4922943115234 69.70921325683594 C 119.4919891357422 69.71115875244141 119.4922409057617 69.70957946777344 119.4919281005859 69.71151733398438 C 119.4907684326172 69.71873474121094 119.4894866943359 69.72674560546875 119.4883270263672 69.73396301269531 C 119.4883270263672 69.73396301269531 119.4880142211914 69.73591613769531 119.4880142211914 69.73591613769531 C 119.4868545532227 69.74313354492188 119.4856567382813 69.75057983398438 119.4844970703125 69.75780487060547 C 119.4844970703125 69.75780487060547 119.48388671875 69.76158142089844 119.48388671875 69.76158142089844 C 119.4827194213867 69.76880645751953 119.4816436767578 69.77548217773438 119.4804840087891 69.78269958496094 C 119.4804840087891 69.78269958496094 119.4800033569336 69.78564453125 119.4800033569336 69.78564453125 C 119.4788360595703 69.79286193847656 119.4777297973633 69.79974365234375 119.4765548706055 69.80696105957031 C 119.4762420654297 69.80889892578125 119.4762878417969 69.80862426757813 119.4759750366211 69.81056976318359 C 119.4748077392578 69.81778717041016 119.4735946655273 69.82525634765625 119.4724197387695 69.83247375488281 C 119.4721069335938 69.83441162109375 119.472412109375 69.83255767822266 119.4720916748047 69.83449554443359 C 119.4709243774414 69.84171295166016 119.4697494506836 69.84893798828125 119.4685745239258 69.85615539550781 C 119.4685745239258 69.85615539550781 119.4680099487305 69.85963439941406 119.4680099487305 69.85963439941406 C 119.4573516845703 69.92511749267578 119.4465942382813 69.99052429199219 119.4357223510742 70.05593872070313 C 119.4357223510742 70.05593872070313 119.4353942871094 70.05787658691406 119.4353942871094 70.05787658691406 C 119.4341125488281 70.06560516357422 119.4328918457031 70.07295227050781 119.4316024780273 70.08068084716797 C 119.4316024780273 70.08068084716797 119.4313354492188 70.08229064941406 119.4313354492188 70.08229064941406 C 119.4301300048828 70.08949279785156 119.4287872314453 70.09756469726563 119.4275817871094 70.10477447509766 C 119.4272613525391 70.10670471191406 119.4274291992188 70.10568237304688 119.4271087646484 70.10762023925781 C 119.4259033203125 70.11483001708984 119.4246673583984 70.12220764160156 119.4234619140625 70.12940979003906 C 119.4234619140625 70.12940979003906 119.4229888916016 70.13224792480469 119.4229888916016 70.13224792480469 C 119.4217834472656 70.13945007324219 119.4206695556641 70.14608764648438 119.4194564819336 70.15329742431641 C 119.4194564819336 70.15329742431641 119.4188079833984 70.15718078613281 119.4188079833984 70.15718078613281 C 119.417594909668 70.16439819335938 119.4164047241211 70.17147827148438 119.4151916503906 70.17868041992188 C 119.4151916503906 70.17868041992188 119.4147872924805 70.18109130859375 119.4147872924805 70.18109130859375 C 119.41357421875 70.18830108642578 119.4121856689453 70.19651794433594 119.4109725952148 70.20372009277344 C 119.41064453125 70.20565795898438 119.4110336303711 70.203369140625 119.4107055664063 70.20530700683594 C 119.4094009399414 70.21302795410156 119.408073425293 70.22086334228516 119.4067687988281 70.22857666015625 C 119.4067687988281 70.22857666015625 119.4065475463867 70.22988891601563 119.4065475463867 70.22988891601563 C 119.4052429199219 70.23760986328125 119.4039916992188 70.24501037597656 119.4026794433594 70.25273132324219 C 119.4026794433594 70.25273132324219 119.4023590087891 70.25461578369141 119.4023590087891 70.25461578369141 C 119.3911895751953 70.32046508789063 119.3800659179688 70.3853759765625 119.3686828613281 70.45115661621094 C 119.3686828613281 70.45115661621094 119.368408203125 70.45272064208984 119.368408203125 70.45272064208984 C 119.367073059082 70.46043395996094 119.3657760620117 70.46791076660156 119.3644409179688 70.47562408447266 C 119.3641052246094 70.47755432128906 119.3644866943359 70.47537994384766 119.3641510009766 70.47731018066406 C 119.3628082275391 70.48501586914063 119.3615188598633 70.49246215820313 119.3601760864258 70.50016784667969 C 119.3601760864258 70.50016784667969 119.3598556518555 70.50199890136719 119.3598556518555 70.50199890136719 C 119.3585205078125 70.50971221923828 119.3572311401367 70.51712036132813 119.3558883666992 70.52482604980469 C 119.3558883666992 70.52482604980469 119.3556060791016 70.52642822265625 119.3556060791016 70.52642822265625 C 119.3543472290039 70.53361511230469 119.3529434204102 70.54168701171875 119.3516845703125 70.54887390136719 C 119.3516845703125 70.54887390136719 119.3512420654297 70.55140686035156 119.3512420654297 70.55140686035156 C 119.3498992919922 70.55911254882813 119.348518371582 70.56697082519531 119.34716796875 70.57467651367188 C 119.34716796875 70.57467651367188 119.3471069335938 70.57502746582031 119.3471069335938 70.57502746582031 C 119.3456649780273 70.583251953125 119.3443450927734 70.59081268310547 119.3428955078125 70.59902954101563 C 119.3428955078125 70.59902954101563 119.3427581787109 70.59983062744141 119.3427581787109 70.59983062744141 C 119.3413162231445 70.60804748535156 119.3399429321289 70.6158447265625 119.338493347168 70.62406158447266 C 119.338493347168 70.62406158447266 119.3384628295898 70.62423706054688 119.3384628295898 70.62423706054688 C 119.3371124267578 70.63194274902344 119.3356475830078 70.64024353027344 119.3342819213867 70.64794921875 C 119.3342819213867 70.64794921875 119.3340835571289 70.64910125732422 119.3340835571289 70.64910125732422 C 119.3224792480469 70.71481323242188 119.3108749389648 70.77991485595703 119.2990646362305 70.84555053710938 C 119.2990646362305 70.84555053710938 119.2989196777344 70.84637451171875 119.2989196777344 70.84637451171875 C 119.2959671020508 70.86278533935547 119.2931213378906 70.87854766845703 119.290153503418 70.89495086669922 C 119.290153503418 70.89495086669922 119.2901077270508 70.89519500732422 119.2901077270508 70.89519500732422 C 119.2886276245117 70.90339660644531 119.2872009277344 70.91127014160156 119.2857131958008 70.91946411132813 C 119.2857131958008 70.91946411132813 119.28564453125 70.91986083984375 119.28564453125 70.91986083984375 C 119.2841567993164 70.92805480957031 119.2827911376953 70.93559265136719 119.2813034057617 70.94379425048828 C 119.2813034057617 70.94379425048828 119.2811508178711 70.94460296630859 119.2811508178711 70.94460296630859 C 119.2781753540039 70.96099853515625 119.2753677368164 70.97642517089844 119.2723693847656 70.99281311035156 C 119.2723693847656 70.99281311035156 119.2722015380859 70.99374389648438 119.2722015380859 70.99374389648438 C 119.2572402954102 71.07571411132813 119.2422332763672 71.15696716308594 119.226936340332 71.23883056640625 C 119.2265777587891 71.24075317382813 119.2270889282227 71.23800659179688 119.2267303466797 71.23992919921875 C 119.2251968383789 71.24811553955078 119.2239074707031 71.2550048828125 119.2223739624023 71.26318359375 C 119.2223739624023 71.26318359375 119.2221298217773 71.26451110839844 119.2221298217773 71.26451110839844 C 119.2205963134766 71.272705078125 119.2193374633789 71.27940368652344 119.2178039550781 71.28759002685547 C 119.2178039550781 71.28759002685547 119.217529296875 71.28904724121094 119.217529296875 71.28904724121094 C 119.2144546508789 71.305419921875 119.2115707397461 71.32073974609375 119.2084884643555 71.33709716796875 C 119.2084884643555 71.33709716796875 119.2083892822266 71.33761596679688 119.2083892822266 71.33761596679688 C 119.1898727416992 71.435791015625 119.1711883544922 71.53351593017578 119.1521987915039 71.63151550292969 C 119.1518249511719 71.63343811035156 119.1524963378906 71.62995910644531 119.1521301269531 71.63186645507813 C 119.0761642456055 72.02388000488281 118.9965057373047 72.41395568847656 118.9129638671875 72.80320739746094 C 118.9129638671875 72.80320739746094 118.9127960205078 72.80398559570313 118.9127960205078 72.80398559570313 C 118.9110565185547 72.81210327148438 118.9094543457031 72.81956481933594 118.9077072143555 72.82766723632813 C 118.9077072143555 72.82766723632813 118.9076232910156 72.82807922363281 118.9076232910156 72.82807922363281 C 118.905876159668 72.836181640625 118.9042205810547 72.84386444091797 118.902473449707 72.85197448730469 C 118.902473449707 72.85197448730469 118.9023895263672 72.85237121582031 118.9023895263672 72.85237121582031 C 118.8779296875 72.96587371826172 118.8532180786133 73.07895660400391 118.8281173706055 73.19221496582031 C 118.8281173706055 73.19221496582031 118.8280639648438 73.19246673583984 118.8280639648438 73.19246673583984 C 118.7420120239258 73.58078002929688 118.6522598266602 73.96746826171875 118.5587387084961 74.35291290283203 C 118.5587387084961 74.35291290283203 118.5587005615234 74.35307312011719 118.5587005615234 74.35307312011719 C 117.6702728271484 78.01483154296875 116.4466171264648 81.54547882080078 114.9220275878906 84.91080474853516 C 114.0856781005859 86.75694274902344 112.2675323486328 87.84876251220703 110.3646011352539 87.84876251220703 C 109.6748046875 87.84876251220703 108.973518371582 87.70514678955078 108.3043060302734 87.4019775390625 C 105.7889785766602 86.262451171875 104.6736297607422 83.29960632324219 105.8131561279297 80.78425598144531 C 108.7584533691406 74.28285217285156 110.2518539428711 67.33240509033203 110.2518539428711 60.12593078613281 C 110.2518539428711 32.48640441894531 87.76545715332031 10.00000762939453 60.12593078613281 10.00000762939453 C 57.36450576782227 10.00000762939453 55.12593078613281 7.761428833007813 55.12593078613281 5.000007629394531 C 55.12593078613281 2.238578796386719 57.36450576782227 7.62939453125e-06 60.12593078613281 7.62939453125e-06 C 60.12593078613281 7.62939453125e-06 60.12593078613281 7.62939453125e-06 60.12593078613281 7.62939453125e-06 Z" stroke="none" fill="#fff"/>
        </g>
      </g>
      <text id="_35_" data-name="35%" transform="translate(320 2296)" fill="#fff" font-size="32" font-family="Rubik-Medium, Rubik" font-weight="500"><tspan x="0" y="0">35%</tspan></text>
      <text id="Total_Project_Completed" data-name="Total Project
Completed" transform="translate(352 2385)" fill="#fff" font-size="18" font-family="Rubik-Regular, Rubik"><tspan x="-52.434" y="0">Total Project</tspan><tspan x="-45.639" y="22">Completed</tspan></text>
    </g>
    <g id="Group_890" data-name="Group 890" transform="translate(-110 -171)">
      <g transform="matrix(1, 0, 0, 1, 81, 2159)" filter="url(#Path_3506)">
        <path id="Path_3506-2" data-name="Path 3506" d="M15,0H215a15,15,0,0,1,15,15V54a15,15,0,0,1-15,15H15A15,15,0,0,1,0,54V15A15,15,0,0,1,15,0Z" transform="translate(343 117)" fill="#fcbe2d"/>
      </g>
      <text id="_50_completed" data-name="50% completed" transform="translate(577 2319)" fill="#fff" font-size="7" font-family="Rubik-Regular, Rubik"><tspan x="0" y="0">50% completed</tspan></text>
      <path id="Path_3503" data-name="Path 3503" d="M2,0H55a2,2,0,0,1,0,4H2A2,2,0,0,1,2,0Z" transform="translate(578 2304)" fill="#fff" opacity="0.57"/>
      <path id="Path_3504" data-name="Path 3504" d="M2,0H27a2,2,0,0,1,0,4H2A2,2,0,0,1,2,0Z" transform="translate(578 2304)" fill="#fff"/>
      <rect id="Rectangle_562" data-name="Rectangle 562" width="69" height="10" rx="5" transform="translate(487 2299)" fill="#fff"/>
      <rect id="Rectangle_563" data-name="Rectangle 563" width="69" height="4" rx="2" transform="translate(487 2313)" fill="#fff" opacity="0.57"/>
      <g id="Group_884" data-name="Group 884">
        <g id="Ellipse_223" data-name="Ellipse 223" transform="translate(439 2291)" fill="#fff" stroke="#fff" stroke-linejoin="round" stroke-width="3">
          <circle cx="19.5" cy="19.5" r="19.5" stroke="none"/>
          <circle cx="19.5" cy="19.5" r="21" fill="none"/>
        </g>
        <path id="Intersection_6" data-name="Intersection 6" d="M-1532.018,40.37q-.46-.39-.894-.81a12.461,12.461,0,0,1-.149-1.317c-.361-6.225,5.141-7.17,9.256-7.019a1.089,1.089,0,0,0,1.109-1.085c.014-.528.02-1.038.02-1.038a8.14,8.14,0,0,1-.959-1.76,6.6,6.6,0,0,1-.363-1.588,2.193,2.193,0,0,1-1.158-1.345,1.768,1.768,0,0,1,.4-1.76s-1.042-4.246-.165-6.42,3.49-3.054,5.556-3.141,2.614,1.173,2.614,1.173,1.868-.31,2.679,2.106-.4,5.729-.4,5.729a4.7,4.7,0,0,1,.4,2,2.161,2.161,0,0,1-.893,1.484,6.694,6.694,0,0,1-.4,1.76,2.954,2.954,0,0,1-1.191,1.484s0,.669.015,1.313a1.09,1.09,0,0,0,1.117,1.094c4.052-.178,9.566.673,9.428,6.659q-.236.288-.482.566a19.941,19.941,0,0,1-13.917,5.624A19.936,19.936,0,0,1-1532.018,40.37Z" transform="translate(1979.035 2285.919)" fill="#fcbe2d"/>
      </g>
    </g>
    <rect id="Rectangle_565" data-name="Rectangle 565" width="203" height="14" rx="7" transform="translate(95 2227.5)" fill="#eaeaea"/>
    <rect id="Rectangle_567" data-name="Rectangle 567" width="203" height="14" rx="7" transform="translate(149 2294)" fill="url(#linear-gradient-2)"/>
    <rect id="Rectangle_568" data-name="Rectangle 568" width="203" height="14" rx="7" transform="translate(149 2367)" fill="url(#linear-gradient-2)"/>
    <rect id="Rectangle_569" data-name="Rectangle 569" width="203" height="14" rx="7" transform="translate(149 2434)" fill="url(#linear-gradient-2)"/>
    <rect id="Rectangle_566" data-name="Rectangle 566" width="51" height="24" rx="12" transform="translate(348 2223)" fill="#00c58d"/>
    <circle id="Ellipse_251" data-name="Ellipse 251" cx="9" cy="9" r="9" transform="translate(378 2226)" fill="#fff"/>
    <g id="Group_895" data-name="Group 895" transform="translate(-342 -9)">
      <circle id="Ellipse_223-2" data-name="Ellipse 223" cx="19.5" cy="19.5" r="19.5" transform="translate(439 2291)" opacity="0.48" fill="url(#linear-gradient-5)"/>
      <path id="Intersection_6-2" data-name="Intersection 6" d="M-1532.018,40.37q-.46-.39-.894-.81a12.461,12.461,0,0,1-.149-1.317c-.361-6.225,5.141-7.17,9.256-7.019a1.089,1.089,0,0,0,1.109-1.085c.014-.528.02-1.038.02-1.038a8.14,8.14,0,0,1-.959-1.76,6.6,6.6,0,0,1-.363-1.588,2.193,2.193,0,0,1-1.158-1.345,1.768,1.768,0,0,1,.4-1.76s-1.042-4.246-.165-6.42,3.49-3.054,5.556-3.141,2.614,1.173,2.614,1.173,1.868-.31,2.679,2.106-.4,5.729-.4,5.729a4.7,4.7,0,0,1,.4,2,2.161,2.161,0,0,1-.893,1.484,6.694,6.694,0,0,1-.4,1.76,2.954,2.954,0,0,1-1.191,1.484s0,.669.015,1.313a1.09,1.09,0,0,0,1.117,1.094c4.052-.178,9.566.673,9.428,6.659q-.236.288-.482.566a19.941,19.941,0,0,1-13.917,5.624A19.936,19.936,0,0,1-1532.018,40.37Z" transform="translate(1979.035 2285.918)" fill="#fff"/>
    </g>
    <g id="Group_896" data-name="Group 896" transform="translate(-342 64)">
      <circle id="Ellipse_223-3" data-name="Ellipse 223" cx="19.5" cy="19.5" r="19.5" transform="translate(439 2291)" opacity="0.48" fill="url(#linear-gradient-5)"/>
      <path id="Intersection_6-3" data-name="Intersection 6" d="M-1532.018,40.37q-.46-.39-.894-.81a12.461,12.461,0,0,1-.149-1.317c-.361-6.225,5.141-7.17,9.256-7.019a1.089,1.089,0,0,0,1.109-1.085c.014-.528.02-1.038.02-1.038a8.14,8.14,0,0,1-.959-1.76,6.6,6.6,0,0,1-.363-1.588,2.193,2.193,0,0,1-1.158-1.345,1.768,1.768,0,0,1,.4-1.76s-1.042-4.246-.165-6.42,3.49-3.054,5.556-3.141,2.614,1.173,2.614,1.173,1.868-.31,2.679,2.106-.4,5.729-.4,5.729a4.7,4.7,0,0,1,.4,2,2.161,2.161,0,0,1-.893,1.484,6.694,6.694,0,0,1-.4,1.76,2.954,2.954,0,0,1-1.191,1.484s0,.669.015,1.313a1.09,1.09,0,0,0,1.117,1.094c4.052-.178,9.566.673,9.428,6.659q-.236.288-.482.566a19.941,19.941,0,0,1-13.917,5.624A19.936,19.936,0,0,1-1532.018,40.37Z" transform="translate(1979.035 2285.918)" fill="#fff"/>
    </g>
    <g id="Group_897" data-name="Group 897" transform="translate(-342 128)">
      <circle id="Ellipse_223-4" data-name="Ellipse 223" cx="19.5" cy="19.5" r="19.5" transform="translate(439 2291)" opacity="0.48" fill="url(#linear-gradient-5)"/>
      <path id="Intersection_6-4" data-name="Intersection 6" d="M-1532.018,40.37q-.46-.39-.894-.81a12.461,12.461,0,0,1-.149-1.317c-.361-6.225,5.141-7.17,9.256-7.019a1.089,1.089,0,0,0,1.109-1.085c.014-.528.02-1.038.02-1.038a8.14,8.14,0,0,1-.959-1.76,6.6,6.6,0,0,1-.363-1.588,2.193,2.193,0,0,1-1.158-1.345,1.768,1.768,0,0,1,.4-1.76s-1.042-4.246-.165-6.42,3.49-3.054,5.556-3.141,2.614,1.173,2.614,1.173,1.868-.31,2.679,2.106-.4,5.729-.4,5.729a4.7,4.7,0,0,1,.4,2,2.161,2.161,0,0,1-.893,1.484,6.694,6.694,0,0,1-.4,1.76,2.954,2.954,0,0,1-1.191,1.484s0,.669.015,1.313a1.09,1.09,0,0,0,1.117,1.094c4.052-.178,9.566.673,9.428,6.659q-.236.288-.482.566a19.941,19.941,0,0,1-13.917,5.624A19.936,19.936,0,0,1-1532.018,40.37Z" transform="translate(1979.035 2285.918)" fill="#fff"/>
    </g>
  </g>
</svg>
