<svg xmlns="http://www.w3.org/2000/svg" xmlns:xlink="http://www.w3.org/1999/xlink" width="739" height="711" viewBox="0 0 739 711">
  <defs>
    <linearGradient id="linear-gradient" x1="0.041" y1="0.5" x2="1.235" y2="0.514" gradientUnits="objectBoundingBox">
      <stop offset="0" stop-color="#fc5454"/>
      <stop offset="1" stop-color="#fff"/>
    </linearGradient>
    <filter id="Path_3505" x="0" y="128.5" width="532" height="461.471" filterUnits="userSpaceOnUse">
      <feOffset dx="-10" dy="30" input="SourceAlpha"/>
      <feGaussianBlur stdDeviation="30" result="blur"/>
      <feFlood flood-opacity="0.102"/>
      <feComposite operator="in" in2="blur"/>
      <feComposite in="SourceGraphic"/>
    </filter>
    <filter id="Rectangle_540" x="345" y="85" width="228" height="228" filterUnits="userSpaceOnUse">
      <feOffset dx="10" dy="20" input="SourceAlpha"/>
      <feGaussianBlur stdDeviation="15" result="blur-2"/>
      <feFlood flood-color="#fc5454" flood-opacity="0.2"/>
      <feComposite operator="in" in2="blur-2"/>
      <feComposite in="SourceGraphic"/>
    </filter>
    <filter id="Rectangle_561" x="330" y="268" width="403" height="443" filterUnits="userSpaceOnUse">
      <feOffset dy="20" input="SourceAlpha"/>
      <feGaussianBlur stdDeviation="30" result="blur-3"/>
      <feFlood flood-opacity="0.102"/>
      <feComposite operator="in" in2="blur-3"/>
      <feComposite in="SourceGraphic"/>
    </filter>
    <filter id="Rectangle_561-2" x="73" y="354" width="403" height="326" filterUnits="userSpaceOnUse">
      <feOffset dy="20" input="SourceAlpha"/>
      <feGaussianBlur stdDeviation="30" result="blur-4"/>
      <feFlood flood-opacity="0.102"/>
      <feComposite operator="in" in2="blur-4"/>
      <feComposite in="SourceGraphic"/>
    </filter>
    <linearGradient id="linear-gradient-2" x1="0.5" x2="0.5" y2="1" gradientUnits="objectBoundingBox">
      <stop offset="0" stop-color="#fc5454"/>
      <stop offset="1" stop-color="#fc5454" stop-opacity="0"/>
    </linearGradient>
    <filter id="Path_248" x="161.614" y="495.5" width="242.92" height="67.314" filterUnits="userSpaceOnUse">
      <feOffset dx="10" dy="20" input="SourceAlpha"/>
      <feGaussianBlur stdDeviation="2.5" result="blur-5"/>
      <feFlood flood-color="#fc5454" flood-opacity="0.2"/>
      <feComposite operator="in" in2="blur-5"/>
      <feComposite in="SourceGraphic"/>
    </filter>
  </defs>
  <g id="Group_906" data-name="Group 906" transform="translate(-595 -2707)">
    <g id="Group_849" data-name="Group 849" transform="translate(-133 1311)">
      <circle id="Ellipse_208" data-name="Ellipse 208" cx="257.5" cy="257.5" r="257.5" transform="translate(890 1458)" opacity="0.13" fill="url(#linear-gradient)"/>
      <g id="Ellipse_209" data-name="Ellipse 209" transform="translate(828 1396)" fill="none" stroke="#e4e4e7" stroke-width="1" stroke-dasharray="10">
        <circle cx="319.5" cy="319.5" r="319.5" stroke="none"/>
        <circle cx="319.5" cy="319.5" r="319" fill="none"/>
      </g>
    </g>
    <g transform="matrix(1, 0, 0, 1, 595, 2707)" filter="url(#Path_3505)">
      <g id="Path_3505-2" data-name="Path 3505" transform="translate(100 188.5)" fill="rgba(255,255,255,0.96)">
        <path d="M 333.94873046875 280.470703125 L 18.05127334594727 280.470703125 C 13.50218200683594 280.470703125 9.223817825317383 278.6458129882813 6.004318237304688 275.3322143554688 C 2.777227163314819 272.0108032226563 1 267.5927124023438 1 262.8918151855469 L 1 18.57894325256348 C 1 13.8779878616333 2.777227163314819 9.459897041320801 6.004318237304688 6.138487815856934 C 9.223817825317383 2.824897050857544 13.50218200683594 0.9999879002571106 18.05127334594727 0.9999879002571106 L 333.94873046875 0.9999879002571106 C 338.4978332519531 0.9999879002571106 342.7761840820313 2.824897050857544 345.9956970214844 6.138487815856934 C 349.2227783203125 9.459897041320801 351 13.87803363800049 351 18.57894325256348 L 351 262.8918151855469 C 351 267.5927124023438 349.2227783203125 272.0108032226563 345.9956970214844 275.3322143554688 C 342.7761840820313 278.6458129882813 338.4978332519531 280.470703125 333.94873046875 280.470703125 Z" stroke="none"/>
        <path d="M 18.05126953125 2 C 13.77471923828125 2 9.7510986328125 3.71722412109375 6.7215576171875 6.835296630859375 C 3.67681884765625 9.969024658203125 2 14.13967895507813 2 18.57888793945313 L 2 262.8917541503906 C 2 267.3309936523438 3.67681884765625 271.5016174316406 6.7215576171875 274.6353454589844 C 9.7510986328125 277.7534790039063 13.7747802734375 279.470703125 18.05126953125 279.470703125 L 333.94873046875 279.470703125 C 338.2252197265625 279.470703125 342.2489013671875 277.7534790039063 345.2784423828125 274.6353454589844 C 348.3231811523438 271.5016174316406 350 267.3309936523438 350 262.8917541503906 L 350 18.57888793945313 C 350 14.13967895507813 348.3231811523438 9.969024658203125 345.2784423828125 6.835296630859375 C 342.2489013671875 3.71722412109375 338.2252807617188 2 333.94873046875 2 L 18.05126953125 2 M 18.05126953125 0 L 333.94873046875 0 C 343.9181518554688 0 352 8.318023681640625 352 18.57888793945313 L 352 262.8917541503906 C 352 273.1526184082031 343.9181518554688 281.470703125 333.94873046875 281.470703125 L 18.05126953125 281.470703125 C 8.081878662109375 281.470703125 0 273.1526184082031 0 262.8917541503906 L 0 18.57888793945313 C 0 8.318023681640625 8.081878662109375 0 18.05126953125 0 Z" stroke="none" fill="#fff"/>
      </g>
    </g>
    <g id="Group_883" data-name="Group 883" transform="translate(496 25.5)">
      <g id="Group_882" data-name="Group 882" transform="translate(45 -30)">
        <rect id="Rectangle_564" data-name="Rectangle 564" width="134" height="14" rx="7" transform="translate(201 2932)" fill="#eaeaea"/>
        <ellipse id="Ellipse_224" data-name="Ellipse 224" cx="10.5" cy="11" rx="10.5" ry="11" transform="translate(202 2973)" fill="#eaeaea"/>
        <ellipse id="Ellipse_225" data-name="Ellipse 225" cx="10.5" cy="11" rx="10.5" ry="11" transform="translate(261 2973)" fill="#eaeaea"/>
        <ellipse id="Ellipse_226" data-name="Ellipse 226" cx="10.5" cy="11" rx="10.5" ry="11" transform="translate(320 2973)" fill="#eaeaea"/>
        <circle id="Ellipse_227" data-name="Ellipse 227" cx="11" cy="11" r="11" transform="translate(379 2973)" fill="#eaeaea"/>
        <ellipse id="Ellipse_228" data-name="Ellipse 228" cx="10.5" cy="11" rx="10.5" ry="11" transform="translate(439 2973)" fill="#eaeaea"/>
        <circle id="Ellipse_229" data-name="Ellipse 229" cx="10.5" cy="10.5" r="10.5" transform="translate(202 3012)" fill="#eaeaea"/>
        <circle id="Ellipse_230" data-name="Ellipse 230" cx="10.5" cy="10.5" r="10.5" transform="translate(261 3012)" fill="#fc5454"/>
        <circle id="Ellipse_231" data-name="Ellipse 231" cx="10.5" cy="10.5" r="10.5" transform="translate(320 3012)" fill="#eaeaea"/>
        <ellipse id="Ellipse_232" data-name="Ellipse 232" cx="11" cy="10.5" rx="11" ry="10.5" transform="translate(379 3012)" fill="#eaeaea"/>
        <circle id="Ellipse_233" data-name="Ellipse 233" cx="10.5" cy="10.5" r="10.5" transform="translate(439 3012)" fill="#eaeaea"/>
        <circle id="Ellipse_234" data-name="Ellipse 234" cx="10.5" cy="10.5" r="10.5" transform="translate(202 3051)" fill="#eaeaea"/>
        <circle id="Ellipse_235" data-name="Ellipse 235" cx="10.5" cy="10.5" r="10.5" transform="translate(261 3051)" fill="#eaeaea"/>
        <circle id="Ellipse_236" data-name="Ellipse 236" cx="10.5" cy="10.5" r="10.5" transform="translate(320 3051)" fill="#645cfe"/>
        <ellipse id="Ellipse_237" data-name="Ellipse 237" cx="11" cy="10.5" rx="11" ry="10.5" transform="translate(379 3051)" fill="#eaeaea"/>
        <circle id="Ellipse_238" data-name="Ellipse 238" cx="10.5" cy="10.5" r="10.5" transform="translate(439 3051)" fill="#eaeaea"/>
        <circle id="Ellipse_239" data-name="Ellipse 239" cx="10.5" cy="10.5" r="10.5" transform="translate(202 3089)" fill="#eaeaea"/>
        <circle id="Ellipse_240" data-name="Ellipse 240" cx="10.5" cy="10.5" r="10.5" transform="translate(261 3089)" fill="#eaeaea"/>
        <circle id="Ellipse_241" data-name="Ellipse 241" cx="10.5" cy="10.5" r="10.5" transform="translate(320 3089)" fill="#eaeaea"/>
        <ellipse id="Ellipse_242" data-name="Ellipse 242" cx="11" cy="10.5" rx="11" ry="10.5" transform="translate(379 3089)" fill="#eaeaea"/>
        <circle id="Ellipse_243" data-name="Ellipse 243" cx="10.5" cy="10.5" r="10.5" transform="translate(439 3089)" fill="#eaeaea"/>
        <circle id="Ellipse_244" data-name="Ellipse 244" cx="10.5" cy="10.5" r="10.5" transform="translate(202 3128)" fill="#eaeaea"/>
        <circle id="Ellipse_245" data-name="Ellipse 245" cx="10.5" cy="10.5" r="10.5" transform="translate(261 3128)" fill="#eaeaea"/>
        <circle id="Ellipse_246" data-name="Ellipse 246" cx="10.5" cy="10.5" r="10.5" transform="translate(320 3128)" fill="#eaeaea"/>
        <ellipse id="Ellipse_247" data-name="Ellipse 247" cx="11" cy="10.5" rx="11" ry="10.5" transform="translate(379 3128)" fill="#eaeaea"/>
        <circle id="Ellipse_248" data-name="Ellipse 248" cx="10.5" cy="10.5" r="10.5" transform="translate(439 3128)" fill="#eaeaea"/>
      </g>
    </g>
    <circle id="Ellipse_250" data-name="Ellipse 250" cx="87" cy="87" r="87" transform="translate(939 3017)" fill="#fc5454" opacity="0.5"/>
    <g id="Group_888" data-name="Group 888" transform="translate(354 2330.741)">
      <g transform="matrix(1, 0, 0, 1, 241, 376.26)" filter="url(#Rectangle_540)">
        <rect id="Rectangle_540-2" data-name="Rectangle 540" width="138" height="138" rx="50" transform="translate(380 110)" fill="#fc5454"/>
      </g>
    </g>
    <g id="Group_899" data-name="Group 899" transform="translate(775 870)">
      <g transform="matrix(1, 0, 0, 1, -180, 1837)" filter="url(#Rectangle_561)">
        <rect id="Rectangle_561-3" data-name="Rectangle 561" width="223" height="263" rx="20" transform="translate(420 338)" fill="#fff"/>
      </g>
    </g>
    <line id="Line_234" data-name="Line 234" y2="200" transform="translate(1047.5 3103.5)" fill="none" stroke="#eaeaea" stroke-width="1" stroke-dasharray="5"/>
    <line id="Line_235" data-name="Line 235" x1="47" transform="translate(1050.5 3257.5)" fill="none" stroke="#eaeaea" stroke-width="1" stroke-dasharray="5"/>
    <line id="Line_236" data-name="Line 236" x1="47" transform="translate(1050.5 3192.5)" fill="none" stroke="#eaeaea" stroke-width="1" stroke-dasharray="5"/>
    <line id="Line_237" data-name="Line 237" x1="47" transform="translate(1050.5 3119.5)" fill="none" stroke="#eaeaea" stroke-width="1" stroke-dasharray="5"/>
    <g id="Group_900" data-name="Group 900" transform="translate(678 809)">
      <circle id="Ellipse_223" data-name="Ellipse 223" cx="19.5" cy="19.5" r="19.5" transform="translate(439 2291)" fill="#e5e5e5" opacity="0.48"/>
      <path id="Intersection_6" data-name="Intersection 6" d="M-1532.018,40.37q-.46-.39-.894-.81a12.461,12.461,0,0,1-.149-1.317c-.361-6.225,5.141-7.17,9.256-7.019a1.089,1.089,0,0,0,1.109-1.085c.014-.528.02-1.038.02-1.038a8.14,8.14,0,0,1-.959-1.76,6.6,6.6,0,0,1-.363-1.588,2.193,2.193,0,0,1-1.158-1.345,1.768,1.768,0,0,1,.4-1.76s-1.042-4.246-.165-6.42,3.49-3.054,5.556-3.141,2.614,1.173,2.614,1.173,1.868-.31,2.679,2.106-.4,5.729-.4,5.729a4.7,4.7,0,0,1,.4,2,2.161,2.161,0,0,1-.893,1.484,6.694,6.694,0,0,1-.4,1.76,2.954,2.954,0,0,1-1.191,1.484s0,.669.015,1.313a1.09,1.09,0,0,0,1.117,1.094c4.052-.178,9.566.673,9.428,6.659q-.236.288-.482.566a19.941,19.941,0,0,1-13.917,5.624A19.936,19.936,0,0,1-1532.018,40.37Z" transform="translate(1979.035 2285.918)" fill="#fff"/>
    </g>
    <g id="Group_901" data-name="Group 901" transform="translate(675 882)">
      <circle id="Ellipse_223-2" data-name="Ellipse 223" cx="19.5" cy="19.5" r="19.5" transform="translate(439 2291)" fill="#e5e5e5" opacity="0.48"/>
      <path id="Intersection_6-2" data-name="Intersection 6" d="M-1532.018,40.37q-.46-.39-.894-.81a12.461,12.461,0,0,1-.149-1.317c-.361-6.225,5.141-7.17,9.256-7.019a1.089,1.089,0,0,0,1.109-1.085c.014-.528.02-1.038.02-1.038a8.14,8.14,0,0,1-.959-1.76,6.6,6.6,0,0,1-.363-1.588,2.193,2.193,0,0,1-1.158-1.345,1.768,1.768,0,0,1,.4-1.76s-1.042-4.246-.165-6.42,3.49-3.054,5.556-3.141,2.614,1.173,2.614,1.173,1.868-.31,2.679,2.106-.4,5.729-.4,5.729a4.7,4.7,0,0,1,.4,2,2.161,2.161,0,0,1-.893,1.484,6.694,6.694,0,0,1-.4,1.76,2.954,2.954,0,0,1-1.191,1.484s0,.669.015,1.313a1.09,1.09,0,0,0,1.117,1.094c4.052-.178,9.566.673,9.428,6.659q-.236.288-.482.566a19.941,19.941,0,0,1-13.917,5.624A19.936,19.936,0,0,1-1532.018,40.37Z" transform="translate(1979.035 2285.918)" fill="#fff"/>
    </g>
    <g id="Group_902" data-name="Group 902" transform="translate(675 947)">
      <circle id="Ellipse_223-3" data-name="Ellipse 223" cx="19.5" cy="19.5" r="19.5" transform="translate(439 2291)" fill="#e5e5e5" opacity="0.48"/>
      <path id="Intersection_6-3" data-name="Intersection 6" d="M-1532.018,40.37q-.46-.39-.894-.81a12.461,12.461,0,0,1-.149-1.317c-.361-6.225,5.141-7.17,9.256-7.019a1.089,1.089,0,0,0,1.109-1.085c.014-.528.02-1.038.02-1.038a8.14,8.14,0,0,1-.959-1.76,6.6,6.6,0,0,1-.363-1.588,2.193,2.193,0,0,1-1.158-1.345,1.768,1.768,0,0,1,.4-1.76s-1.042-4.246-.165-6.42,3.49-3.054,5.556-3.141,2.614,1.173,2.614,1.173,1.868-.31,2.679,2.106-.4,5.729-.4,5.729a4.7,4.7,0,0,1,.4,2,2.161,2.161,0,0,1-.893,1.484,6.694,6.694,0,0,1-.4,1.76,2.954,2.954,0,0,1-1.191,1.484s0,.669.015,1.313a1.09,1.09,0,0,0,1.117,1.094c4.052-.178,9.566.673,9.428,6.659q-.236.288-.482.566a19.941,19.941,0,0,1-13.917,5.624A19.936,19.936,0,0,1-1532.018,40.37Z" transform="translate(1979.035 2285.918)" fill="#fff"/>
    </g>
    <circle id="Ellipse_252" data-name="Ellipse 252" cx="10.5" cy="10.5" r="10.5" transform="translate(1190 3109)" fill="#00c58d"/>
    <circle id="Ellipse_253" data-name="Ellipse 253" cx="10.5" cy="10.5" r="10.5" transform="translate(1190 3183)" fill="#eae9e9"/>
    <circle id="Ellipse_254" data-name="Ellipse 254" cx="10.5" cy="10.5" r="10.5" transform="translate(1190 3247)" fill="#eae9e9"/>
    <rect id="Rectangle_570" data-name="Rectangle 570" width="90.5" height="14" rx="7" transform="translate(1046 3070.5)" fill="#eaeaea"/>
    <rect id="Rectangle_571" data-name="Rectangle 571" width="22.5" height="14" rx="7" transform="translate(1147.75 3070.5)" fill="#eaeaea"/>
    <path id="Path_3508" data-name="Path 3508" d="M3230.249,10639.981l2.591,3.089,6.277-5.28" transform="translate(-2034 -7521)" fill="none" stroke="#fff" stroke-width="2"/>
    <path id="iconmonstr-bell-17" d="M40.677,11.615a6.182,6.182,0,0,1-3.062-5.358V6.247a6.174,6.174,0,1,0-12.348,0v.009a6.178,6.178,0,0,1-3.062,5.358C8.462,19.6,16.359,46.105,2,50.789v5.149H60.883V50.789C46.524,46.105,54.42,19.6,40.677,11.615Zm-9.236-8.67A2.944,2.944,0,1,1,28.5,5.888,2.947,2.947,0,0,1,31.441,2.944Zm8.832,58.883a9.028,9.028,0,0,1-8.747,8.832,9.18,9.18,0,0,1-8.918-8.832ZM55.039,24.963A29.042,29.042,0,0,0,46.745,8.726L50.855,4.5a34.759,34.759,0,0,1,10,19.508ZM2,24.015A34.767,34.767,0,0,1,12,4.5l4.11,4.222A29.022,29.022,0,0,0,7.812,24.963Z" transform="translate(1012.559 2850.671)" fill="#fff"/>
    <g id="Group_903" data-name="Group 903" transform="translate(518 956)">
      <g transform="matrix(1, 0, 0, 1, 77, 1751)" filter="url(#Rectangle_561-2)">
        <rect id="Rectangle_561-4" data-name="Rectangle 561" width="223" height="146" rx="20" transform="translate(163 424)" fill="#fff"/>
      </g>
    </g>
    <g id="Group_904" data-name="Group 904" transform="translate(758 3203.5)">
      <path id="Path_249" data-name="Path 249" d="M4566.3,436.518l223-.125V406.445s-5.8,14.915-19.111,12.68-17.959-22-34.118-21.621-27.246,28.982-53.169,29.571-24.651-32.656-48.467-32.436-21.39,23.574-32.194,27.062-15.8-1.341-23.956,1.144a23.492,23.492,0,0,0-11.986,8.11Z" transform="translate(-4566.295 -394.518)" opacity="0.13" fill="url(#linear-gradient-2)"/>
      <g transform="matrix(1, 0, 0, 1, -163, -496.5)" filter="url(#Path_248)">
        <path id="Path_248-2" data-name="Path 248" d="M5207.2,1578.528s4.8-7.226,12.961-8.991,16.548,3.44,24.709-1.475,10.555-26.962,30.782-26.962,23.782,32.736,49.887,33.092,34.869-29.651,50.928-29.928,21.213,18.763,32.544,21.639,18.7-5.751,20.962-12.687" transform="translate(-5044.2 -1044.6)" fill="none" stroke="#fc5454" stroke-linecap="round" stroke-width="2"/>
      </g>
      <g id="Path_250" data-name="Path 250" transform="translate(168.225 0.71)" fill="#645cfe">
        <path d="M 1.751441597938538 3.002881526947021 C 1.061391592025757 3.002881526947021 0.5000016093254089 2.441491603851318 0.5000016093254089 1.751441597938538 C 0.5000016093254089 1.061391592025757 1.061391592025757 0.5000016093254089 1.751441597938538 0.5000016093254089 C 2.441491603851318 0.5000016093254089 3.002881526947021 1.061391592025757 3.002881526947021 1.751441597938538 C 3.002881526947021 2.441491603851318 2.441491603851318 3.002881526947021 1.751441597938538 3.002881526947021 Z" stroke="none"/>
        <path d="M 1.751441597938538 1.000001668930054 C 1.337091684341431 1.000001668930054 1.000001668930054 1.337091684341431 1.000001668930054 1.751441597938538 C 1.000001668930054 2.165791511535645 1.337091684341431 2.502881526947021 1.751441597938538 2.502881526947021 C 2.165791511535645 2.502881526947021 2.502881526947021 2.165791511535645 2.502881526947021 1.751441597938538 C 2.502881526947021 1.337091684341431 2.165791511535645 1.000001668930054 1.751441597938538 1.000001668930054 M 1.751441597938538 1.668930053710938e-06 C 2.718731641769409 1.668930053710938e-06 3.502881526947021 0.784151554107666 3.502881526947021 1.751441597938538 C 3.502881526947021 2.718731641769409 2.718731641769409 3.502881526947021 1.751441597938538 3.502881526947021 C 0.784151554107666 3.502881526947021 1.668930053710938e-06 2.718731641769409 1.668930053710938e-06 1.751441597938538 C 1.668930053710938e-06 0.784151554107666 0.784151554107666 1.668930053710938e-06 1.751441597938538 1.668930053710938e-06 Z" stroke="none" fill="#fff"/>
      </g>
    </g>
    <rect id="Rectangle_572" data-name="Rectangle 572" width="90.5" height="14" rx="7" transform="translate(819.25 3157.5)" fill="#eaeaea"/>
    <g id="Group_905" data-name="Group 905" transform="translate(334 854)">
      <circle id="Ellipse_223-4" data-name="Ellipse 223" cx="19.5" cy="19.5" r="19.5" transform="translate(439 2291)" fill="#e5e5e5" opacity="0.48"/>
      <path id="Intersection_6-4" data-name="Intersection 6" d="M-1532.018,40.37q-.46-.39-.894-.81a12.461,12.461,0,0,1-.149-1.317c-.361-6.225,5.141-7.17,9.256-7.019a1.089,1.089,0,0,0,1.109-1.085c.014-.528.02-1.038.02-1.038a8.14,8.14,0,0,1-.959-1.76,6.6,6.6,0,0,1-.363-1.588,2.193,2.193,0,0,1-1.158-1.345,1.768,1.768,0,0,1,.4-1.76s-1.042-4.246-.165-6.42,3.49-3.054,5.556-3.141,2.614,1.173,2.614,1.173,1.868-.31,2.679,2.106-.4,5.729-.4,5.729a4.7,4.7,0,0,1,.4,2,2.161,2.161,0,0,1-.893,1.484,6.694,6.694,0,0,1-.4,1.76,2.954,2.954,0,0,1-1.191,1.484s0,.669.015,1.313a1.09,1.09,0,0,0,1.117,1.094c4.052-.178,9.566.673,9.428,6.659q-.236.288-.482.566a19.941,19.941,0,0,1-13.917,5.624A19.936,19.936,0,0,1-1532.018,40.37Z" transform="translate(1979.035 2285.918)" fill="#fff"/>
    </g>
  </g>
</svg>
