<svg xmlns="http://www.w3.org/2000/svg" width="79.648" height="52.523" viewBox="0 0 79.648 52.523">
  <g id="g4421" transform="translate(-3.372 -3.372)">
    <path id="path4423" d="M26.839,25.651V38.512H22.744V22.346l8.453.008c3.59,0,4.813,2.532,4.813,4.831V38.513H31.923V27.207c0-.963-.5-1.556-1.7-1.556H26.839Zm27.84-.193a3.137,3.137,0,0,0-2.935,1.7,4.192,4.192,0,0,0-.392,1.754h6.3c-.081-1.754-.876-3.45-2.972-3.45m-3.327,6.236a3.4,3.4,0,0,0,3.626,3.636,4.6,4.6,0,0,0,3.753-1.541L61.26,36.2a8.081,8.081,0,0,1-6.312,2.569c-3.919,0-7.67-2.137-7.67-8.365,0-5.322,3.275-8.334,7.578-8.334,4.362,0,6.882,3.527,6.882,8.147v1.475H51.352m-7.53,6.8a4.409,4.409,0,0,1-4.751-4.615V17.941h4.088v4.4h3.082v3.3H43.159v7.97a1.275,1.275,0,0,0,1.419,1.461h1.663v3.411H43.822M19.1,20.112H14.979V16.2H19.1Zm.01,18.571c-3.087-.3-4.137-2.169-4.137-4.33l0-12.007h4.133V38.682Zm49.133-.345c-3.081-.3-4.126-2.167-4.126-4.324V15.638h4.126v22.7ZM82.668,18.294C78.929.064,43.543-1.09,20.734,12.8v1.533c22.785-11.71,55.1-11.641,58.045,5.149.985,5.552-2.143,11.34-7.731,14.667V38.5c6.725-2.46,13.622-10.438,11.62-20.2M41.207,50.188c-15.742,1.455-32.145-.83-34.441-13.13-1.123-6.064,1.639-12.492,5.3-16.484V18.438C5.473,24.223,1.893,31.547,3.954,40.2c2.631,11.1,16.709,17.385,38.2,15.3,8.5-.83,19.63-3.564,27.366-7.81V41.656c-7.02,4.18-18.636,7.637-28.311,8.532" transform="translate(0 0)" fill="#7f8092"/>
    <path id="path4425" d="M859.266,159.365c0-.2-.117-.264-.384-.264h-.258v.566c.037,0,.225.007.258.007.267,0,.384-.089.384-.276v-.033Zm.4,1.4h-.306a.073.073,0,0,1-.064-.04l-.417-.707a.094.094,0,0,0-.058-.032h-.187v.7a.075.075,0,0,1-.075.078h-.276a.081.081,0,0,1-.069-.078v-1.772c0-.1.04-.145.127-.159s.363-.022.506-.022c.508,0,.814.15.814.627v.033a.5.5,0,0,1-.375.527l.432.731a.292.292,0,0,1,.013.052.059.059,0,0,1-.066.061m-.725-2.35a1.364,1.364,0,1,0,1.362,1.368,1.369,1.369,0,0,0-1.362-1.368m0,3.01a1.642,1.642,0,1,1,1.646-1.641,1.639,1.639,0,0,1-1.646,1.641" transform="translate(-786.252 -142.507)" fill="#7f8092"/>
  </g>
</svg>
