<svg xmlns="http://www.w3.org/2000/svg" width="165.255" height="35.375" viewBox="0 0 165.255 35.375">
  <g id="_80658" data-name="80658" transform="translate(0 457)">
    <path id="Path_9" data-name="Path 9" d="M0-448.608v8.392H16.784V-457H0Z" fill="#7f8092"/>
    <path id="Path_10" data-name="Path 10" d="M143.09-456.91c-.052.039-.09,3.822-.09,8.392v8.3h16.784V-457h-8.3C146.912-457,143.129-456.961,143.09-456.91Z" transform="translate(-124.538)" fill="#7f8092"/>
    <path id="Path_11" data-name="Path 11" d="M1141.626-413.456a5.478,5.478,0,0,0-3.4,2.414,6.947,6.947,0,0,0-.736,3.55v1.381l-1.252.039-1.265.039-.039,1.446-.039,1.459h2.595v12.265h3.615v-12.265h5.293v3.9c.013,4.661.1,5.539.672,6.688a3.45,3.45,0,0,0,2.208,1.82,8.928,8.928,0,0,0,3.55-.077l.8-.232v-2.892l-.736.245c-1.188.4-2.117.155-2.582-.71-.207-.361-.232-.891-.271-4.583l-.039-4.157h3.628V-406.1h-3.615v-4.415l-.349.09c-.207.039-1.02.284-1.807.529l-1.459.452v3.408l-2.659-.039-2.66-.039.039-1.511c.052-1.653.219-2.13.917-2.647a3.056,3.056,0,0,1,2.35-.181l.594.207v-1.536c0-1.3-.026-1.536-.219-1.6A11.914,11.914,0,0,0,1141.626-413.456Z" transform="translate(-988.379 -37.864)" fill="#7f8092"/>
    <path id="Path_12" data-name="Path 12" d="M557.694-404.834a1.929,1.929,0,0,0-.994,1.769,1.958,1.958,0,0,0,2.337,1.962,1.9,1.9,0,0,0,1.9-1.975,1.849,1.849,0,0,0-.968-1.717A2.476,2.476,0,0,0,557.694-404.834Z" transform="translate(-484.827 -45.207)" fill="#7f8092"/>
    <path id="Path_13" data-name="Path 13" d="M355-391.413v10.587h3.486l-.026-8.134c-.026-4.48,0-8.134.039-8.134s1.536,3.667,3.344,8.134l3.279,8.147,1.291-.039,1.291-.039,3.189-8.043c1.756-4.428,3.228-8.082,3.266-8.121s.077,3.589.077,8.069v8.159h3.615V-402h-4.983l-2.957,7.256c-1.627,4-3.073,7.527-3.2,7.837l-.258.581-1.123-2.84c-.62-1.549-2.014-5.074-3.1-7.837l-1.975-5H355Z" transform="translate(-309.168 -47.899)" fill="#7f8092"/>
    <path id="Path_14" data-name="Path 14" d="M612.005-357.6a7.567,7.567,0,0,0-5.552,5.1,11.85,11.85,0,0,0-.207,4.958,7.476,7.476,0,0,0,3.5,4.687,9.463,9.463,0,0,0,7.256.271l.749-.3.065-1.653c.039-.9.052-1.64.039-1.64s-.4.207-.865.452c-2.156,1.2-4.57.994-5.978-.491a5.333,5.333,0,0,1-1.2-4.6,4.508,4.508,0,0,1,2.789-3.744,5.566,5.566,0,0,1,4.7.594,3.389,3.389,0,0,0,.516.3,10.506,10.506,0,0,0,.026-1.73l-.039-1.73-.865-.284A12.358,12.358,0,0,0,612.005-357.6Z" transform="translate(-527.829 -86.429)" fill="#7f8092"/>
    <path id="Path_15" data-name="Path 15" d="M724.843-357.143A3.776,3.776,0,0,0,721.951-355l-.323.62-.013-1.33v-1.33l-1.769.039-1.782.039-.039,7.578L718-341.792h3.6l.039-4.686.039-4.674.362-.775a3.016,3.016,0,0,1,2.208-1.988,4.336,4.336,0,0,1,2.3.323l.362.194v-1.743c0-1.252-.052-1.769-.155-1.846A4.472,4.472,0,0,0,724.843-357.143Z" transform="translate(-625.303 -86.934)" fill="#7f8092"/>
    <path id="Path_16" data-name="Path 16" d="M794.453-357.569a7.128,7.128,0,0,0-5.5,5.422,12.845,12.845,0,0,0-.013,4.764,7.021,7.021,0,0,0,5.138,5.2,11.776,11.776,0,0,0,4.557-.026,7.175,7.175,0,0,0,4.983-4.3,10.073,10.073,0,0,0,.581-4.093,7.263,7.263,0,0,0-2.066-5.177,6.149,6.149,0,0,0-2.66-1.627A13.516,13.516,0,0,0,794.453-357.569Zm3.8,3.086a3.887,3.887,0,0,1,1.949,2.233,7.44,7.44,0,0,1,.245,2.492,5.707,5.707,0,0,1-.31,2.492,3.51,3.51,0,0,1-1.743,1.988,3.1,3.1,0,0,1-1.82.336,3.738,3.738,0,0,1-2.75-.865c-1.214-1.046-1.769-3.537-1.252-5.732a3.921,3.921,0,0,1,2.195-2.944A4.778,4.778,0,0,1,798.249-354.483Z" transform="translate(-686.896 -86.456)" fill="#7f8092"/>
    <path id="Path_17" data-name="Path 17" d="M925.783-357.574a5.386,5.386,0,0,0-3.408,2.685,5.269,5.269,0,0,0,.013,3.641c.529,1.085,1.123,1.549,3.408,2.647a16.4,16.4,0,0,1,2.324,1.278,1.818,1.818,0,0,1,.155,1.756c-.736,1.123-3.473,1.007-5.526-.245l-.749-.452v3.473l.465.194a11.267,11.267,0,0,0,5.706.4,5.13,5.13,0,0,0,3.512-2.6,3.541,3.541,0,0,0,.31-1.872,3.227,3.227,0,0,0-.271-1.756c-.646-1.227-1.472-1.846-3.8-2.892-1.7-.749-2.169-1.149-2.272-1.924-.245-1.769,2.427-2.285,5.035-.968l.62.323-.039-1.653-.039-1.64-.775-.245A12.2,12.2,0,0,0,925.783-357.574Z" transform="translate(-802.965 -86.451)" fill="#7f8092"/>
    <path id="Path_18" data-name="Path 18" d="M1017.834-357.722a7.24,7.24,0,0,0-4.338,3,9.907,9.907,0,0,0-.7,8.082c1.162,3.111,4.454,4.893,8.185,4.428a6.706,6.706,0,0,0,4.6-2.117,7.432,7.432,0,0,0,2.182-5.887c0-2.6-.607-4.3-2.027-5.732a6.17,6.17,0,0,0-3.137-1.756A11.613,11.613,0,0,0,1017.834-357.722Zm4.144,3.073a4.062,4.062,0,0,1,1.743,2.053,5.7,5.7,0,0,1,.3,2.44c.013,2.647-.529,3.886-2.04,4.648a3.208,3.208,0,0,1-1.872.374,3.585,3.585,0,0,1-2.982-1.175c-.839-.968-1.084-1.769-1.1-3.654,0-2.582.581-3.847,2.156-4.648a2.978,2.978,0,0,1,2.04-.361A3.954,3.954,0,0,1,1021.978-354.65Z" transform="translate(-881.564 -86.251)" fill="#7f8092"/>
    <path id="Path_19" data-name="Path 19" d="M559-348.47v7.617h3.615l-.026-7.591-.039-7.578-1.769-.039L559-356.1Z" transform="translate(-486.83 -87.873)" fill="#7f8092"/>
    <path id="Path_20" data-name="Path 20" d="M0-304.608v8.392H16.784V-313H0Z" transform="translate(0 -125.409)" fill="#7f8092"/>
    <path id="Path_21" data-name="Path 21" d="M143.026-304.647l.039,8.366,8.366.039,8.353.026V-313H143Z" transform="translate(-124.538 -125.409)" fill="#7f8092"/>
  </g>
</svg>
