<svg xmlns="http://www.w3.org/2000/svg" width="132.534" height="39.703" viewBox="0 0 132.534 39.703">
  <g id="slack" transform="translate(-1.464 -25.444)">
    <path id="Path_22" data-name="Path 22" d="M177.707,41.019c0-3.942,2.874-6.7,8.1-6.7a13,13,0,0,1,7.208,2.015.921.921,0,0,1,.347,1.13c-.277.692-.786,1.732-1.15,2.408-.212.394-.755.342-1.032.2A13.092,13.092,0,0,0,187,38.545a8.881,8.881,0,0,0-1.157-.05c-1.336.03-2.451.494-2.844,1.512a1.794,1.794,0,0,0-.127.6c-.037,1.343,1.832,1.828,4.1,2.217,4.209.721,7.393,1.955,7.393,6.287,0,3.679-2.924,7-8.652,6.9a12.546,12.546,0,0,1-7.891-2.591,1.181,1.181,0,0,1-.3-1.268,9.514,9.514,0,0,1,1.345-2.374,1.044,1.044,0,0,1,1.237-.18,11.2,11.2,0,0,0,5.376,1.993c.177.006.353.007.525,0,2.019-.049,3.241-.815,3.215-2.1-.022-1.136-1.623-1.8-4.172-2.281-4.066-.766-7.338-2.106-7.338-6.2m36.941,5.613c-2.867.038-5.5.821-5.572,3.062,0,1.778,1.442,2.652,3.466,2.537a5.174,5.174,0,0,0,4.076-2.147,8.333,8.333,0,0,0,.263-2.627c0-.141-.283-.408-.4-.459a4.63,4.63,0,0,0-1.829-.367M205.108,37.6a11.6,11.6,0,0,1,8.237-2.969c5.592.116,8.546,2.738,8.821,9.008.113,2.586-.074,9.8-.119,11.6-.007.258-.094.436-.441.443-.921.037-3.048.022-4.026.01-.493-.024-.55-.269-.557-.525,0-.168-.019-.665-.029-1.07a.163.163,0,0,0-.259-.154,7.836,7.836,0,0,1-5.744,2.077c-3.472,0-6.933-2.042-6.923-6.087.011-4.142,2.948-6.186,6.174-6.667a12.547,12.547,0,0,1,6.159.667c.113.045.343-.02.345-.18a12.156,12.156,0,0,0-.12-2.011c-.259-1.215-1.272-2.192-3.4-2.456a6.551,6.551,0,0,0-1.322-.037c-1.692.133-3.729,1.453-4.572,1.947a.539.539,0,0,1-.61-.1,25.3,25.3,0,0,1-1.827-2.793.653.653,0,0,1,.213-.7h0Zm18.9,7.711A10.252,10.252,0,0,1,234.537,34.62c4.079-.027,7.042,1.822,7.564,2.695a.664.664,0,0,1-.022.582,20.266,20.266,0,0,1-1.839,2.936c-.265.34-.552.049-.886-.173a8.7,8.7,0,0,0-4.42-1.372c-3.144,0-5.485,2.156-5.459,6.122.024,3.806,2.267,5.9,5.469,5.973a6.482,6.482,0,0,0,4.169-1.709c.274-.239.558-.119.871.125a25.1,25.1,0,0,1,1.985,2.265.652.652,0,0,1-.035.88,9.259,9.259,0,0,1-7.276,3.109c-7.1.05-10.617-4.94-10.65-10.738m33.875,10.477c.333-.025,3.888-.516,4.979-.765a.314.314,0,0,0,.216-.515c-.609-.914-2.211-3.508-3.889-5.831-1.543-2.136-3.169-4.014-3.7-4.736a.341.341,0,0,1,.018-.485c1-.979,5.186-5.083,6.76-6.778.609-.659.243-.943-.274-1.1-1-.3-2.616-.669-3.536-.863a1.252,1.252,0,0,0-1.193.3c-1.573,1.467-6.375,6.287-7.809,7.727-.258.26-.408.2-.41-.169-.012-2.778-.067-14.669-.166-16.625a.57.57,0,0,0-.493-.464c-.9-.047-3.178-.061-4.076-.008a.637.637,0,0,0-.513.5c-.207,3.128.088,26.087.211,29.3a.432.432,0,0,0,.4.425c.9.052,3.11.048,4.143.029.509,0,.571-.358.571-.358l.077-6.161a1.022,1.022,0,0,1,.137-.364c.364-.392,1.373-1.473,1.8-1.891a.239.239,0,0,1,.371.049c.511.689,1.967,2.929,3.318,4.93,1.241,1.838,2.4,3.469,2.48,3.584a.6.6,0,0,0,.569.272h0Zm-60.455-.021c.313.01,2.684.008,3.735.006a.521.521,0,0,0,.549-.5c.223-4.5.128-25.943-.013-29.329-.012-.293-.137-.4-.337-.429a18.2,18.2,0,0,0-4.287.122.331.331,0,0,0-.26.321c-.2,8.726-.065,28.845-.023,29.226a.58.58,0,0,0,.636.579h0Z" transform="translate(-129.153 0)" fill="#7f8092"/>
    <path id="Path_23" data-name="Path 23" d="M4.8,61.753a3.239,3.239,0,0,1-3.156-2.219q-.025-.077-.047-.155a3.394,3.394,0,0,1,2.2-4.146l27.733-9.291a3.759,3.759,0,0,1,1.013-.148,3.323,3.323,0,0,1,3.24,2.267l.042.134A3.327,3.327,0,0,1,33.5,52.145L5.925,61.561a3.589,3.589,0,0,1-1.126.192Z" transform="translate(0 -14.936)" fill="#7f8092"/>
    <path id="Path_24" data-name="Path 24" d="M22.135,112.659a3.236,3.236,0,0,1-3.167-2.188q-.026-.076-.048-.154a3.417,3.417,0,0,1,2.194-4.186l27.734-9.376a3.572,3.572,0,0,1,1.1-.184,3.351,3.351,0,0,1,3.233,2.247l.043.141a3.509,3.509,0,0,1-.423,2.82,4.651,4.651,0,0,1-1.649,1.162l-27.839,9.519a3.819,3.819,0,0,1-1.178.2Z" transform="translate(-12.714 -52.203)" fill="#7f8092"/>
    <path id="Path_25" data-name="Path 25" d="M83.126,62.607a3.4,3.4,0,0,1-3.26-2.321L70.61,32.793l-.046-.154a3.409,3.409,0,0,1,6.51-2.021l9.255,27.491.027.088a3.407,3.407,0,0,1-3.23,4.41Z" transform="translate(-50.618 -2.092)" fill="#7f8092"/>
    <path id="Path_26" data-name="Path 26" d="M31.415,80.02A3.406,3.406,0,0,1,28.153,77.7L18.9,50.205a3.4,3.4,0,0,1,2.142-4.318,3.448,3.448,0,0,1,1.06-.178,3.4,3.4,0,0,1,3.261,2.321l9.254,27.494a3.408,3.408,0,0,1-3.2,4.5h0Z" transform="translate(-12.665 -14.874)" fill="#7f8092"/>
    <path id="Path_27" data-name="Path 27" d="M95.156,110.624l6.454-2.207-2.11-6.265-6.461,2.183Z" transform="translate(-67.211 -56.3)" fill="#7f8092"/>
    <path id="Path_28" data-name="Path 28" d="M43.482,128.147l6.453-2.206-2.126-6.313-6.46,2.184Z" transform="translate(-29.274 -69.126)" fill="#7f8092"/>
    <path id="Path_29" data-name="Path 29" d="M77.942,59.538l6.454-2.2-2.085-6.192-6.466,2.166Z" transform="translate(-54.592 -18.861)" fill="#7f8092"/>
    <path id="Path_30" data-name="Path 30" d="M26.233,76.95l6.454-2.2-2.111-6.271L24.11,70.641Z" transform="translate(-16.621 -31.583)" fill="#7f8092"/>
  </g>
</svg>
